<?xml version="1.0" encoding="utf-8"?>
<!-- Generator: Adobe Illustrator 24.1.0, SVG Export Plug-In . SVG Version: 6.00 Build 0)  -->
<svg version="1.1" id="Layer_1" xmlns="http://www.w3.org/2000/svg" xmlns:xlink="http://www.w3.org/1999/xlink" x="0px" y="0px"
	 viewBox="0 0 58.8 142.4" style="enable-background:new 0 0 58.8 142.4;" xml:space="preserve">
<style type="text/css">
	.st0{fill:none;}
</style>
<g>
	<path class="st0" d="M211.5,153c30.6-14.4,36-38.7,36-61.5v-48c0.6-63.6-51-115.2-114.6-115.5H0v86.7h25.2v-61.5h107.4
		c49.8,0.6,89.7,40.8,89.7,90.6v48c0,20.7-5.4,30.6-21.6,37.8l-16.2,8.1v36l22.5,3.6c24.3,4.5,33.3,37.8,33.3,58.8v219.6
		c-0.6,49.8-40.5,90-90.3,90.3H25.2V15.6H0v555.6h150c63.6,0,115.5-51,115.5-114.6c0-0.6,0-0.6,0-0.9V236.1
		C265.5,203.4,250.2,160.2,211.5,153z"/>
	<path class="st0" d="M65.1,208.2V510h72.3c39.6,0,63.3-27.9,63.3-63.3V245.1c0-39.6-27-63.3-63.3-63.3H65.1V207h72.3
		c25.2,0,37.8,12.6,37.8,37.8v201.3c0,25.2-12.6,37.8-37.8,37.8H90.3V208.2H65.1z"/>
	<path class="st0" d="M65.1,15.6v130.2H120c18.9,0,34.2-5.4,46.2-17.1c10.8-10.8,16.2-27,16.2-46.2V52.8c0-38.7-27-63.3-62.4-63.3
		H65.1v25.2H120c25.2,0,36.9,12.6,36.9,37.8v29.7c0,25.2-11.7,37.8-36.9,37.8H90.3V15.3H65.1V15.6z"/>
</g>
</svg>
