<?xml version="1.0" encoding="utf-8"?>
<!-- Generator: Adobe Illustrator 24.1.0, SVG Export Plug-In . SVG Version: 6.00 Build 0)  -->
<svg version="1.1" id="Layer_1" xmlns="http://www.w3.org/2000/svg" xmlns:xlink="http://www.w3.org/1999/xlink" x="0px" y="0px"
	 viewBox="0 0 78.4 162.8" style="enable-background:new 0 0 78.4 162.8;" xml:space="preserve">
<style type="text/css">
	.st0{fill:none;}
</style>
<path class="st0" d="M177,207c30-16.8,47.4-56.4,47.4-96.6C224.4,49.8,190.2,0,129.6,0c-8.1,0-15.6,1.5-22.5,4.2V33
	c20.7,13.2,37.5,39,37.5,80.7c0,44.1-20.1,80.4-66.6,86.1v19.8c59.1,6.3,77.4,40.5,77.4,102.6c0,63.6-22.8,105-46.8,133.8
	c-22.8-11.4-31.8-30.6-31.8-96.6V117.6c0-17.4,4.8-64.8,29.7-84.3V4.5C93.9,9.9,83.4,19.8,75.6,33H75V4.8H0v345
	c0,108,16.8,138.6,108,138.6c86.4,0,127.2-81.6,127.2-164.4C235.2,271.2,216,219.6,177,207z"/>
</svg>
