<?xml version="1.0" encoding="utf-8"?>
<!-- Generator: Adobe Illustrator 24.1.0, SVG Export Plug-In . SVG Version: 6.00 Build 0)  -->
<svg version="1.1" id="Layer_1" xmlns="http://www.w3.org/2000/svg" xmlns:xlink="http://www.w3.org/1999/xlink" x="0px" y="0px"
	 viewBox="0 0 121.2 140" style="enable-background:new 0 0 121.2 140;" xml:space="preserve">
<style type="text/css">
	.st0{fill:none;}
</style>
<path id="Layer_2_1_" class="st0" d="M293.4,187.2c17.1-20.4,26.7-46.5,26.4-73.2c0-76.8-55.2-114-158.4-114H27v161.1h114V108h27.6
	c28.8,0,41.4,9.6,41.4,30c0,18.6-12.6,30-41.4,30H141v-6.3H27v6.3H0v102h27v27h114v-27h76.2c13.8,0,30.6,3,30.6,21
	c0,18-16.8,21-30.6,21H141v-14.4H27V420h177c88.2,0,159.6-28.8,159.6-124.2C363.6,241.8,338.4,207,293.4,187.2z"/>
</svg>
