<?xml version="1.0" encoding="utf-8"?>
<!-- Generator: Adobe Illustrator 24.1.0, SVG Export Plug-In . SVG Version: 6.00 Build 0)  -->
<svg version="1.1" id="Layer_1" xmlns="http://www.w3.org/2000/svg" xmlns:xlink="http://www.w3.org/1999/xlink" x="0px" y="0px"
	 viewBox="0 0 137.2 149.6" style="enable-background:new 0 0 137.2 149.6;" xml:space="preserve">
<style type="text/css">
	.st0{fill:none;}
</style>
<path id="Layer_2_1_" class="st0" d="M35.7,46.7v118.2h71.7V32h54.9c8.4,0,16.5,1.2,24.6,3.9c7.5,2.4,14.1,6.6,19.8,12
	c6,6,10.2,13.2,12.9,21.3c3,10.2,4.8,21.3,4.8,32.4c0,25.2-5.7,43.2-17.1,53.7c-11.4,10.5-26.4,15.6-44.7,15.6h-55.2v-5.4H35.7v72.3
	h71.7v-48.3h84.9c10.8,0,21.9,1.5,32.4,4.8c10.2,3,19.8,8.4,27.6,15.6c8.7,7.8,15.3,17.4,19.5,28.5c4.8,11.7,7.5,26.4,7.5,43.5
	c0,18.3-2.4,33-7.5,45c-4.2,10.8-10.8,21-19.5,28.8c-8.1,6.9-17.4,12.6-27.9,15.3c-10.2,3-21,4.2-31.8,4.2h-85.2V238.7H35.7v121.8
	c0,15.9-12,23.7-35.7,23.7v9.3h229.2c15.6,0,30.9-2.4,45.9-7.5c14.1-4.8,27.3-12,39-21.3c11.4-9.3,20.4-21.3,27-34.8
	c6.9-14.7,10.2-31.2,10.2-48c0.3-14.7-2.7-29.1-8.7-42.6c-5.4-12-13.2-23.1-22.8-32.4c-9.3-9.3-20.7-16.5-32.7-21.9
	c-12-5.7-24.9-9.6-38.1-12c6-2.7,11.4-6.3,16.5-10.2c5.7-4.8,10.8-9.6,15.3-15.6c4.8-6.6,8.4-13.5,11.1-21c3-7.8,4.2-16.2,4.2-24.6
	c0-12.6-2.4-24.6-7.8-35.7C283.2,54.8,276,45.2,267,37.7c-9.3-7.5-19.5-13.8-30.9-18c-11.4-4.2-23.7-6.6-35.7-6.6H0v9.3
	C23.7,22.7,35.7,30.8,35.7,46.7z"/>
</svg>
