<?xml version="1.0" encoding="utf-8"?>
<!-- Generator: Adobe Illustrator 24.1.0, SVG Export Plug-In . SVG Version: 6.00 Build 0)  -->
<svg version="1.1" id="Layer_1" xmlns="http://www.w3.org/2000/svg" xmlns:xlink="http://www.w3.org/1999/xlink" x="0px" y="0px"
	 viewBox="0 0 115.8 140" style="enable-background:new 0 0 115.8 140;" xml:space="preserve">
<style type="text/css">
	.st0{fill:none;}
</style>
<path id="Layer_2_1_" class="st0" d="M264.6,180c14.1-15.6,21.9-36,21.6-57c0-61.2-45-123-124.8-123H0v122.7h96.6V90h64.2
	c16.8,0,30.6,16.8,30.6,33s-13.2,33-30.6,33H96.6v-32.7H0v164.4h96.6V246h114c22.2,0,40.8,21,40.8,42c0,21-19.8,42-40.8,42h-114
	v-41.7H0V420h211.8c85.2,0,135-67.8,135.6-132C347.4,241.2,321.6,196.2,264.6,180z"/>
</svg>
