<?xml version="1.0" encoding="utf-8"?>
<!-- Generator: Adobe Illustrator 24.1.0, SVG Export Plug-In . SVG Version: 6.00 Build 0)  -->
<svg version="1.1" id="Layer_1" xmlns="http://www.w3.org/2000/svg" xmlns:xlink="http://www.w3.org/1999/xlink" x="0px" y="0px"
	 viewBox="0 0 88.3 163.2" style="enable-background:new 0 0 88.3 163.2;" xml:space="preserve">
<style type="text/css">
	.st0{fill:none;}
</style>
<path id="Layer_2_1_" class="st0" d="M263.1,117.6C273.3,58.2,238.5,0,174.9,0l-48,19.2L128.7,6h-75L38.4,116.4h78l11.1-79.8
	c45,3,62.4,25.8,54.6,78.6c-6.6,44.4-30,83.4-78,89.4l12.3-87.6h-78l-24,172.2h77.7l9.6-68.4c55.2,4.8,72.6,34.8,63,100.8
	c-6.6,45.6-46.8,127.8-75,138.6c-19.2-18-13.2-61.8-7.8-99l10.2-71.4h-78l-8.4,60.6c-14.4,102-7.8,139.2,92.4,139.2
	c84.6,0,135-81,145.8-162.6c7.2-54.6-6-106.2-43.8-118.8C233.7,194.4,255.9,158.4,263.1,117.6z"/>
</svg>
