<?xml version="1.0" encoding="utf-8"?>
<!-- Generator: Adobe Illustrator 24.1.0, SVG Export Plug-In . SVG Version: 6.00 Build 0)  -->
<svg version="1.1" id="Layer_1" xmlns="http://www.w3.org/2000/svg" xmlns:xlink="http://www.w3.org/1999/xlink" x="0px" y="0px"
	 viewBox="0 0 58.8 142.4" style="enable-background:new 0 0 58.8 142.4;" xml:space="preserve">
<style type="text/css">
	.st0{fill:none;}
</style>
<path id="Layer_2_1_" class="st0" d="M140.4,149.4c20.4-9.6,24-25.8,24-40.8V76.8C164.4,34.5,129.9,0,87.6,0H0v57.6h79.2
	c16.8,0,25.2,8.4,25.2,25.2v19.8c0,16.8-8.4,25.2-25.2,25.2H60V58.2H0v127.2h91.2c16.8,0,25.2,8.4,25.2,25.2v133.8
	c0,16.8-8.4,25.2-25.2,25.2H60V186H0v241.2h99.6c42.3,0,76.8-34.5,76.8-76.8V204.6C176.4,183,166.2,154.2,140.4,149.4z"/>
</svg>
