<?xml version="1.0" encoding="utf-8"?>
<!-- Generator: Adobe Illustrator 24.1.0, SVG Export Plug-In . SVG Version: 6.00 Build 0)  -->
<svg version="1.1" id="Layer_1" xmlns="http://www.w3.org/2000/svg" xmlns:xlink="http://www.w3.org/1999/xlink" x="0px" y="0px"
	 viewBox="0 0 37.8 136" style="enable-background:new 0 0 37.8 136;" xml:space="preserve">
<style type="text/css">
	.st0{fill:none;}
</style>
<path id="Layer_2_1_" class="st0" d="M141.6,138.2c15.3-16.2,23.4-37.8,23.1-59.7V11.3c0-45-32.1-83.7-81.9-83.7H0v40.5h82.8
	c21.9-0.3,39.9,17.1,40.5,38.7c0,0.6,0,0.9,0,1.8v72.6c0.6,22.2-17.4,39.9-39.6,40.5l0,0H42.3V-31H0v193.2h91.8
	c22.2-0.6,40.2,16.8,40.5,38.4c0,0.6,0,0.9,0,1.8v269.4c0.9,21.6-16.2,39.6-37.8,40.5c-0.9,0-1.8,0-2.7,0H42.3V163.1H0v389.7h91.8
	c49.5,0,81.9-38.7,81.9-83.7V205.4C174.3,179,162.3,154.4,141.6,138.2z"/>
</svg>
