<?xml version="1.0" encoding="utf-8"?>
<!-- Generator: Adobe Illustrator 24.1.0, SVG Export Plug-In . SVG Version: 6.00 Build 0)  -->
<svg version="1.1" id="Layer_1" xmlns="http://www.w3.org/2000/svg" xmlns:xlink="http://www.w3.org/1999/xlink" x="0px" y="0px"
	 viewBox="0 0 159 134" style="enable-background:new 0 0 159 134;" xml:space="preserve">
<style type="text/css">
	.st0{fill:none;}
</style>
<path id="Layer_2_1_" class="st0" d="M394,112.6V89.8C394,40,354.7,4,300.7,4H4v342h136.8v-84l0,0v-48l0,0v-78l0,0V88h89.1
	c17.4,0,27.3,7.8,27.3,21.6v4.8c0,13.8-9.9,21.6-27.3,21.6h-88.5v78h106.5c17.4,0,27.3,7.8,27.3,21.6v4.8c0,13.8-9.9,21.6-27.3,21.6
	H141.4v84h177.3c54,0,93.3-36,93.3-85.8v-13.8c0-42.6-23.4-64.2-55.5-74.1C378.7,161.5,394,142.6,394,112.6z"/>
</svg>
