<?xml version="1.0" encoding="utf-8"?>
<!-- Generator: Adobe Illustrator 24.1.0, SVG Export Plug-In . SVG Version: 6.00 Build 0)  -->
<svg version="1.1" id="Layer_1" xmlns="http://www.w3.org/2000/svg" xmlns:xlink="http://www.w3.org/1999/xlink" x="0px" y="0px"
	 viewBox="0 0 152.6 154.8" style="enable-background:new 0 0 152.6 154.8;" xml:space="preserve">
<style type="text/css">
	.st0{fill:none;}
</style>
<path id="Layer_2_1_" class="st0" d="M457.8,295.2c0,83.4-71.4,136.8-149.4,136.8c-33,0-114-1.2-150-6l-31.2-119.4
	c37.8,27.6,127.8,37.2,155.4,37.2c42,0,70.2-16.2,70.2-48c0-31.2-25.2-49.8-70.2-49.8H127.2v-69h108.6c41.4,0,63.6-13.8,63.6-45.6
	c0-31.2-25.2-41.4-70.2-41.4h-120v279.6L0,464.4V0h255c61.8,0,149.4,30.6,149.4,123.6c0,24.6-11.4,45.6-30,63.6
	C417.6,201.6,457.8,233.4,457.8,295.2z"/>
</svg>
