<?xml version="1.0" encoding="utf-8"?>
<!-- Generator: Adobe Illustrator 22.0.0, SVG Export Plug-In . SVG Version: 6.00 Build 0)  -->
<svg version="1.1" id="Layer_1" xmlns="http://www.w3.org/2000/svg" xmlns:xlink="http://www.w3.org/1999/xlink" x="0px" y="0px"
	 viewBox="0 0 700 700" enable-background="new 0 0 700 700" xml:space="preserve">
<path fill="none" d="M531.4,173.3C545.6,90.6,497.2,9.6,408.7,9.6l-66.8,26.7l2.5-18.4H240L234,60.6h108.6
	c62.6,4.2,86.8,35.9,76,109.4c-9.2,61.8-41.8,116.1-108.6,124.4l32.6-233.7H234l-35.7,256.2h108.5c76.8,6.7,101,48.4,87.7,140.3
	c-9.2,63.5-65.1,177.9-104.4,192.9c-26.7-25.1-18.4-86-10.9-137.8L306.8,317H198.3l-25.1,180.3c-20,142-10.9,193.7,128.6,193.7
	c117.7,0,187.9-112.7,202.9-226.3c10-76-8.4-147.8-61-165.3C490.5,280.2,521.4,230.1,531.4,173.3z"/>
</svg>
