<?xml version="1.0" encoding="utf-8"?>
<!-- Generator: Adobe Illustrator 22.0.0, SVG Export Plug-In . SVG Version: 6.00 Build 0)  -->
<svg version="1.1" id="Layer_1" xmlns="http://www.w3.org/2000/svg" xmlns:xlink="http://www.w3.org/1999/xlink" x="0px" y="0px"
	 viewBox="0 0 700 700" enable-background="new 0 0 700 700" xml:space="preserve">
<path fill="none" d="M277.6,389.2l5-36.7c15-102.7,48.4-234.6,108.6-294.8C415.4,97,422.1,177.2,407,265.7l111.1,1.7
	C533.1,124.5,512.2,11,385.3,11S199.9,147.1,171.6,347.5C139,574.6,184.1,689,302.7,689c104.3-1.7,162.8-94.3,186.2-210.3H376.9
	c-15.9,66.8-44.2,128.5-76,164.4c-23.4-36.7-30.9-98.5-29.2-164.5H355H377h111.9h20h38.4l12.5-89.3H277.6z"/>
</svg>
