<?xml version="1.0" encoding="utf-8"?>
<!-- Generator: Adobe Illustrator 22.0.0, SVG Export Plug-In . SVG Version: 6.00 Build 0)  -->
<svg version="1.1" id="Layer_1" xmlns="http://www.w3.org/2000/svg" xmlns:xlink="http://www.w3.org/1999/xlink" x="0px" y="0px"
	 viewBox="0 0 700 700" enable-background="new 0 0 700 700" xml:space="preserve">
<g>
	<path fill="none" d="M598.7,271.5L540.2,689H431.7l58.4-417.5C506,159.6,507.7,66.9,445.9,66.9c-5,0-10.9,0.8-15.9,1.7
		c13.4,44.3,4.2,112.7-8.4,202.9L363.2,689H254.7l58.5-417.5c19.2-139.4,28.4-196.2-42.6-203.7L183.7,689H75.1l93.5-668h106.9
		L273,37.7l62.6-25.1c41.8,0,67.6,10.9,82.7,32.6l75.2-32.6C623.7,12.6,624.6,85.3,598.7,271.5z"/>
</g>
</svg>
