<?xml version="1.0" encoding="utf-8"?>
<!-- Generator: Adobe Illustrator 24.1.0, SVG Export Plug-In . SVG Version: 6.00 Build 0)  -->
<svg version="1.1" id="Layer_1" xmlns="http://www.w3.org/2000/svg" xmlns:xlink="http://www.w3.org/1999/xlink" x="0px" y="0px"
	 viewBox="0 0 700 700" style="enable-background:new 0 0 700 700;" xml:space="preserve">
<style type="text/css">
	.st0{fill:none;}
</style>
<g>
	<path class="st0" d="M417.9,270.1c-1.9,23.7-4.7,49.3-8.4,77.3c-20,147.7-53.4,230.4-104.3,294.7h113.6
		c54.9-56.1,86-158.9,103.4-289.6c3.9-28.9,6.8-56.4,8.4-82.4H417.9z"/>
	<path class="st0" d="M301.5,269.5c20.7-97.9,51.6-160.7,92.1-211.8c24.2,50.4,32.2,113.7,24.4,211.8h112.7
		C540.4,112.3,505.6,11,390.3,11c-109.7,0-170.1,101.1-201.2,258.5H301.5z"/>
	<path class="st0" d="M287.6,352.5c3.9-30,8.5-57.4,13.8-82.4H188.9c-4.8,24.5-9,50.4-12.4,77.4C149.8,552.1,174.9,689,307.6,689
		c45,0,81.5-16.6,111.1-46.8H305.1C275,579.6,268.4,496.9,287.6,352.5z"/>
</g>
</svg>
