<?xml version="1.0" encoding="utf-8"?>
<!-- Generator: Adobe Illustrator 24.1.0, SVG Export Plug-In . SVG Version: 6.00 Build 0)  -->
<svg version="1.1" id="Layer_1" xmlns="http://www.w3.org/2000/svg" xmlns:xlink="http://www.w3.org/1999/xlink" x="0px" y="0px"
	 viewBox="0 0 700 700" style="enable-background:new 0 0 700 700;" xml:space="preserve">
<style type="text/css">
	.st0{fill:#231F20;}
</style>
<g>
	<path class="st0" d="M283.8,414.3c1.8-32.7,5.3-69,10.8-109.8C316,139.7,356,47.5,412.8-24.2c33.5,69.8,39.1,162,17.7,323.1
		c-5.8,43.1-12.7,81.2-20.7,115.4h127.3c7.6-34.1,13.9-70.8,19.1-109.8C587,77.3,559-76.3,409.1-76.3
		c-141.5,0-209.5,150.8-238.4,375.3c-5.3,41-8.8,79.6-10.1,115.4H283.8z"/>
	<path class="st0" d="M371.9,671.4c84.7-27.5,135-121.4,165.1-256.5H409.7c-22.5,96-53.7,159.9-95.6,212.8
		c-25-52.1-35.5-116.6-30.3-212.8H160.6c-5,144.7,26.5,241.8,119,261.2L253.6,758c34.5,0.9,125.7,16.8,163,16.8
		c25.1,0,49.4-0.9,61.5-5.6l28.9-95.9c-10.2,4.7-34.5,5.6-59.6,5.6C431.5,678.8,401.7,675.1,371.9,671.4z"/>
</g>
</svg>
