<?xml version="1.0" encoding="utf-8"?>
<!-- Generator: Adobe Illustrator 22.0.0, SVG Export Plug-In . SVG Version: 6.00 Build 0)  -->
<svg version="1.1" id="Layer_1" xmlns="http://www.w3.org/2000/svg" xmlns:xlink="http://www.w3.org/1999/xlink" x="0px" y="0px"
	 viewBox="0 0 700 700" enable-background="new 0 0 700 700" xml:space="preserve">
<path fill="none" d="M541.2,143.6c6.7-81.8-47.6-131.9-128.6-131.9l-61.8,26.7l1.7-18.4H245.7l-5.3,37.6h108.8
	c52.6,6.7,82.7,38.4,79.3,91C425.2,207,384.3,253,320.8,260.5l28.4-202.8H240.4L152.1,688h108.6l56.8-405
	c86.8,21.7,81,74.3,64.3,195.4c-19.2,140.3-25.9,209.6,66,209.6h91v-12.5c-81,0-63.5-95.2-48.4-197.1
	c18.4-125.3,19.2-192.9-45.9-208.8C497,254.6,536.2,205.4,541.2,143.6z"/>
</svg>
