<?xml version="1.0" encoding="utf-8"?>
<!-- Generator: Adobe Illustrator 24.1.0, SVG Export Plug-In . SVG Version: 6.00 Build 0)  -->
<svg version="1.1" id="Layer_1" xmlns="http://www.w3.org/2000/svg" xmlns:xlink="http://www.w3.org/1999/xlink" x="0px" y="0px"
	 viewBox="0 0 700 700" style="enable-background:new 0 0 700 700;" xml:space="preserve">
<style type="text/css">
	.st0{fill:none;}
</style>
<g>
	<path class="st0" d="M433.1,320.4H295.5c0.9,1,1.9,2,2.8,3c53.4,62.6,90.2,113.5,78.5,198.7c-9.2,63.4-41.8,101.8-61.8,120.2
		c-26.7-46-28.4-108.6,4.2-225.5l-112.7-1.7C165.6,605.5,186.4,689,316.7,689c118.6,0,157-76,169.5-161.2s-5.9-152-49.3-202.9
		C435.6,323.4,434.3,321.9,433.1,320.4z"/>
	<path class="st0" d="M393.6,11c-101.1,0-142.8,65.1-152.1,131.2C231.7,211.8,242,262,295,319.8h137.6c-52-61.4-89-115.7-81.7-166.1
		c5.9-43.4,29.3-72.6,49.3-96c12.5,33.4,10,93.5,0,152.8l111.1,1.7C534.7,74.4,518,11,393.6,11z"/>
</g>
</svg>
