<?xml version="1.0" encoding="utf-8"?>
<!-- Generator: Adobe Illustrator 22.0.0, SVG Export Plug-In . SVG Version: 6.00 Build 0)  -->
<svg version="1.1" id="Layer_1" xmlns="http://www.w3.org/2000/svg" xmlns:xlink="http://www.w3.org/1999/xlink" x="0px" y="0px"
	 viewBox="0 0 700 700" enable-background="new 0 0 700 700" xml:space="preserve">
<g>
	<path fill="none" d="M604.9,328.6C572.4,546.6,527.3,686,417.9,686c-35.1,0-63.5-17.5-75.2-55.9c-28.4,37.6-66,55.9-116.9,55.9
		C94.7,686,90.6,562.4,117.3,355.3c25.1-192.1,37.6-329.8-45.1-329.8L73,13h112.7c78.5,0,68.5,150.3,42.6,342.4
		c-14.2,102.7-22.5,220.4,3.3,282.2c48.4-72.6,81-227.1,94.4-374.1h111.1c-16.7,137.8-34.2,241.3-63.5,311.5
		c4.2,36.7,20,61,35.9,63.5c30.9-63.5,66.8-184.5,84.3-308.1c17.5-124.4,30.9-304.8-47.6-304.8V13H559
		C625,13,628.3,171.6,604.9,328.6z"/>
</g>
</svg>
