<?xml version="1.0" encoding="utf-8"?>
<!-- Generator: Adobe Illustrator 22.0.0, SVG Export Plug-In . SVG Version: 6.00 Build 0)  -->
<svg version="1.1" id="Layer_1" xmlns="http://www.w3.org/2000/svg" xmlns:xlink="http://www.w3.org/1999/xlink" x="0px" y="0px"
	 viewBox="0 0 700 700" enable-background="new 0 0 700 700" xml:space="preserve">
<g>
	<path fill="none" d="M557,669.8V684H450.2c-91.9,0-61.8-96-46.8-200.4c9.2-68.5,23.4-125.3,15.9-158.7L259.8,684H142.9l155.3-348.2
		h-30.1c-86,0-65.1-59.3-53.4-147.8c11.7-81.8,40.1-159.5-57.6-159.5V16h115.2c97.7,0,66,97.7,55.1,172
		c-5.8,43.4-13.4,80.2-10.9,106L440.1,16H557L433.5,294h50.9c71.8,0,48.4,79.3,33.4,189.5C506.1,567.9,466.9,669.8,557,669.8z"/>
</g>
</svg>
