<?xml version="1.0" encoding="utf-8"?>
<!-- Generator: Adobe Illustrator 22.0.0, SVG Export Plug-In . SVG Version: 6.00 Build 0)  -->
<svg version="1.1" id="Layer_1" xmlns="http://www.w3.org/2000/svg" xmlns:xlink="http://www.w3.org/1999/xlink" x="0px" y="0px"
	 viewBox="0 0 700 700" enable-background="new 0 0 700 700" xml:space="preserve">
<g>
	<path d="M503.5,38.5v-8.4c-25.1,0-95.2-35.1-96.9-89.3l-96.9,5C334-4.9,411.7,52.7,503.5,38.5z"/>
	<path d="M401.6,86.1c-117.7,0-149.5,71-169.5,214.6l-5.8,40.4h106.9l2.4-17c14.2-98.5,28.4-162.8,67.6-191.2
		c22.5,30.9,23.4,100.2,10.9,189.5l-2.5,19.2h-46.4h-32.1H226.3h-58.5L155.3,431h58.5l-45.9,328.2h106.9L320.6,431h78.5l-45.9,328.2
		h106.9l64.3-456.7C544.4,158.8,526.9,86.1,401.6,86.1z"/>
</g>
</svg>
