<?xml version="1.0" encoding="utf-8"?>
<!-- Generator: Adobe Illustrator 22.0.0, SVG Export Plug-In . SVG Version: 6.00 Build 0)  -->
<svg version="1.1" id="Layer_1" xmlns="http://www.w3.org/2000/svg" xmlns:xlink="http://www.w3.org/1999/xlink" x="0px" y="0px"
	 viewBox="0 0 700 700" enable-background="new 0 0 700 700" xml:space="preserve">
<g>
	<path d="M535.3-54.2l-96.9-5c-1.7,54.3-71.8,89.3-96.9,89.3v8.4C433.4,52.7,511.1-4.9,535.3-54.2z"/>
	<path d="M401.7,86.1c-117.7,0-149.5,71-169.5,214.6l-5.8,40.4h106.9l2.4-17c14.2-98.5,28.4-162.8,67.6-191.2
		c22.5,30.9,23.4,100.2,10.9,189.5l-2.5,19.2h-43.4h-35.1H226.4h-58.5L155.4,431h58.5l-45.9,328.2h106.9L320.7,431h78.5l-45.9,328.2
		h106.9l64.3-456.7C544.5,158.8,527,86.1,401.7,86.1z"/>
</g>
</svg>
