<?xml version="1.0" encoding="utf-8"?>
<!-- Generator: Adobe Illustrator 22.0.0, SVG Export Plug-In . SVG Version: 6.00 Build 0)  -->
<svg version="1.1" id="Layer_1" xmlns="http://www.w3.org/2000/svg" xmlns:xlink="http://www.w3.org/1999/xlink" x="0px" y="0px"
	 viewBox="0 0 700 700" enable-background="new 0 0 700 700" xml:space="preserve">
<g>
	<path fill="none" d="M367.7-8.2c58.5,0,101,40.1,114.4,61.8l81.8-13.4C546.3,4.3,487.1-55,400.2-55c-82.7,0-141.1,52.6-172,101
		l15.9,7.5C265.8,29.4,307.5-8.2,367.7-8.2z"/>
	<path fill="none" d="M382.7,82c-117.7,0-149.5,71-169.5,214.6l-5.8,40.8h106.9l2.5-17.4c14.2-98.5,28.4-162.8,67.6-191.2
		c22.5,30.9,23.4,100.2,10.9,189.5l-2.5,19.2H327h-12.8H207.3h-3.1h-55.3l-12.5,89.3h58.5L148.9,755h106.9l45.9-328.2h78.5
		L334.3,755h106.9l64.3-456.7C525.5,154.6,507.9,82,382.7,82z"/>
</g>
</svg>
