<?xml version="1.0" encoding="utf-8"?>
<!-- Generator: Adobe Illustrator 24.1.0, SVG Export Plug-In . SVG Version: 6.00 Build 0)  -->
<svg version="1.1" id="Layer_1" xmlns="http://www.w3.org/2000/svg" xmlns:xlink="http://www.w3.org/1999/xlink" x="0px" y="0px"
	 viewBox="0 0 700 700" style="enable-background:new 0 0 700 700;" xml:space="preserve">
<path d="M283.5-56.9l96.9-5c1.7,54.3,71.8,89.3,96.9,89.3v8.4C385.4,50,307.7-7.7,283.5-56.9z M311.8,714.6
	C286,677.1,291,620.3,306,513.4l10-73.1H207.4l-15.8,113.2c-18.4,131.1,2.5,207.9,126.9,207.9c117.7,0,161.2-88.5,183.7-272.2
	l-108.6-1.7C388.6,572.6,357.7,667.8,311.8,714.6z M206.6,88.4l-13.4,96h50.1l-21.7,154.5h-50.1L159,428.2h50.1l-1.6,11.5h108.6
	l1.6-11.5h134.5l12.5-89.3H330.3L352,184.4h176.9l13.4-96H206.6z"/>
</svg>
