<?xml version="1.0" encoding="utf-8"?>
<!-- Generator: Adobe Illustrator 24.1.0, SVG Export Plug-In . SVG Version: 6.00 Build 0)  -->
<svg version="1.1" id="Layer_1" xmlns="http://www.w3.org/2000/svg" xmlns:xlink="http://www.w3.org/1999/xlink" x="0px" y="0px"
	 viewBox="0 0 700 700" style="enable-background:new 0 0 700 700;" xml:space="preserve">
<g>
	<polygon points="198.2,416 304,416 408,416 435.1,416 447.3,328.9 316.2,328.9 337.4,178.3 359,178.3 359,84.7 195.7,84.7 
		182.7,178.3 231.5,178.3 210.4,328.9 161.5,328.9 149.3,416 162,416 	"/>
	<path d="M490.4-57L396-61.9c-1.6,52.9-70,87.1-94.4,87.1v8.1C391.1,47.2,466.8-9,490.4-57z"/>
	<polygon points="359.6,84.7 359.6,178.3 510,178.3 523,84.7 	"/>
	<path d="M298.3,695.3c-25.2-36.6-20.4-92-5.7-196.2l11.3-82.5H198.1l-17,121.6c-17.9,127.8,2.4,202.7,123.8,202.7
		c114.8,0,157.1-86.3,179.1-265.4l-105.8-1.6C373.2,556.9,343.1,649.7,298.3,695.3z"/>
</g>
</svg>
