<?xml version="1.0" encoding="utf-8"?>
<!-- Generator: Adobe Illustrator 24.1.0, SVG Export Plug-In . SVG Version: 6.00 Build 0)  -->
<svg version="1.1" id="Layer_1" xmlns="http://www.w3.org/2000/svg" xmlns:xlink="http://www.w3.org/1999/xlink" x="0px" y="0px"
	 viewBox="0 0 700 700" style="enable-background:new 0 0 700 700;" xml:space="preserve">
<style type="text/css">
	.st0{fill:none;}
</style>
<path class="st0" d="M228.2,51.6l-15.9-7.5c30.9-48.4,89.3-101,172-101C471.2-57,530.5,2.3,548,38.2l-81.8,13.4
	c-13.4-21.7-55.9-61.8-114.4-61.8C291.6-10.2,249.9,27.4,228.2,51.6z M303.3,711.2c-25.8-37.5-20.8-94.3-5.8-201.2l9.6-70.2H198.5
	l-15.4,110.3C164.7,681.2,185.6,758,310,758c117.8,0,161.2-88.5,183.7-272.2l-108.6-1.7C380.1,569.2,349.2,664.4,303.3,711.2z
	 M184.8,181h50.1l-21.8,154.5H163l-12.5,89.3h50.1l-2,14.5h108.6l2-14.5h134.4l12.5-89.3H321.7L343.4,181h177l13.5-96H198.2
	L184.8,181z"/>
</svg>
