<?xml version="1.0" encoding="utf-8"?>
<!-- Generator: Adobe Illustrator 22.0.0, SVG Export Plug-In . SVG Version: 6.00 Build 0)  -->
<svg version="1.1" id="Layer_1" xmlns="http://www.w3.org/2000/svg" xmlns:xlink="http://www.w3.org/1999/xlink" x="0px" y="0px"
	 viewBox="0 0 700 700" enable-background="new 0 0 700 700" xml:space="preserve">
<g>
	<path d="M487.6,35.7v-8.4c-25.1,0-95.2-35.1-96.9-89.3l-96.9,5C318.1-7.7,395.7,49.9,487.6,35.7z"/>
	<path d="M390.7,83.3c-44.4,0-80.8,16.6-110.3,46.8h113.7c30.1,62.6,35.1,145.3,15.9,289.7c-20,147.8-53.4,230.5-104.4,294.8
		c-30.1-62.6-36.7-145.3-17.5-289.7c19.2-147.4,54.9-230,105.7-294.3H279.9c-54.6,56.1-86.2,158.8-102.9,289.2
		c-26.7,204.6-1.7,341.5,131.1,341.5c128.6,0,187.9-135.3,214.6-336.5C550.2,221.1,525.1,83.3,390.7,83.3z"/>
</g>
</svg>
