<?xml version="1.0" encoding="utf-8"?>
<!-- Generator: Adobe Illustrator 22.0.0, SVG Export Plug-In . SVG Version: 6.00 Build 0)  -->
<svg version="1.1" id="Layer_1" xmlns="http://www.w3.org/2000/svg" xmlns:xlink="http://www.w3.org/1999/xlink" x="0px" y="0px"
	 viewBox="0 0 700 700" enable-background="new 0 0 700 700" xml:space="preserve">
<g>
	<path fill="none" d="M362.3-10.2c58.5,0,101,40.1,114.4,61.8l81.8-13.4C541,2.3,481.7-57,394.8-57c-82.7,0-141.1,52.6-172,101
		l15.9,7.5C260.4,27.4,302.2-10.2,362.3-10.2z"/>
	<path fill="none" d="M382.3,80c-126.9,0-187.9,135.3-213.8,336.5C141.8,621.1,166.9,758,299.6,758c45,0,81.5-16.6,111.1-46.8H297.1
		c-30.1-62.6-36.7-145.3-17.5-289.7c19.2-147.8,55.1-230.5,106-294.8c30.1,62.6,35.1,145.3,15.9,289.7
		c-20,147.7-53.4,230.4-104.3,294.7h113.6c54.9-56.1,86-158.9,103.4-289.6C541.8,217.8,516.8,80,382.3,80z"/>
</g>
</svg>
