<?xml version="1.0" encoding="utf-8"?>
<!-- Generator: Adobe Illustrator 22.0.0, SVG Export Plug-In . SVG Version: 6.00 Build 0)  -->
<svg version="1.1" id="Layer_1" xmlns="http://www.w3.org/2000/svg" xmlns:xlink="http://www.w3.org/1999/xlink" x="0px" y="0px"
	 viewBox="0 0 700 700" enable-background="new 0 0 700 700" xml:space="preserve">
<g>
	<path d="M509.3-68.2c-23.4,21.7-42.6,35.9-63.5,35.9c-27.6,0-46.8-43.4-71.8-43.4c-40.9,0-76,47.6-96.9,81.8L289.6,17
		c24.2-28.4,36.7-39.2,54.3-39.2C374-22.3,393.2,32,451.6,32c20.9,0,65.1-10.9,92.7-40.1L509.3-68.2z"/>
	<path d="M390.7,96.3c-44.4,0-80.8,16.6-110.3,46.8H394c30.1,62.6,35.1,145.3,15.9,289.7c-20,147.8-53.4,230.5-104.4,294.8
		c-30.1-62.6-36.7-145.3-17.5-289.7c19.2-147.4,54.9-230,105.7-294.3H279.9c-54.6,56.1-86.2,158.8-102.9,289.2
		c-26.7,204.6-1.7,341.5,131.1,341.5c128.6,0,187.9-135.3,214.6-336.5C550.2,234.1,525.1,96.3,390.7,96.3z"/>
</g>
</svg>
