<?xml version="1.0" encoding="utf-8"?>
<!-- Generator: Adobe Illustrator 22.0.0, SVG Export Plug-In . SVG Version: 6.00 Build 0)  -->
<svg version="1.1" id="Layer_1" xmlns="http://www.w3.org/2000/svg" xmlns:xlink="http://www.w3.org/1999/xlink" x="0px" y="0px"
	 viewBox="0 0 700 700" enable-background="new 0 0 700 700" xml:space="preserve">
<g>
	<path d="M551.1,88.3l-52.6,374.1C472.6,643.6,420,761.3,290.6,761.3c-112.7,0-140.3-65.1-123.6-185.4l109.4,1.7
		c-12.5,67.6-5,107.7,11.7,136.9c47.6-50.9,81.8-106.9,97.7-221.3l1.7-9.2L322.3,510c-151.1,0-154.5-97.7-129.4-275.6l20.9-146.1
		h108.6l-20.9,146.1c-21.7,154.5-20,216.3,89.3,221.3l51.8-367.4H551.1z M322.3,35.7v-8.4c25.1,0,95.2-35.1,96.9-89.3l96.9,5
		C491.8-7.7,414.1,49.9,322.3,35.7z"/>
</g>
</svg>
