<?xml version="1.0" encoding="utf-8"?>
<!-- Generator: Adobe Illustrator 22.0.0, SVG Export Plug-In . SVG Version: 6.00 Build 0)  -->
<svg version="1.1" id="Layer_1" xmlns="http://www.w3.org/2000/svg" xmlns:xlink="http://www.w3.org/1999/xlink" x="0px" y="0px"
	 viewBox="0 0 700 700" enable-background="new 0 0 700 700" xml:space="preserve">
<g>
	<path fill="none" d="M540.7-57.1C518.9-32.9,477.2,4.7,421.3,4.7c-58.5,0-105.2-46.8-118.6-61.8l-81.8,13.4
		c21.7,35.9,81,95.2,167.8,95.2c78.5,0,136.9-52.6,167.8-101L540.7-57.1z"/>
	<path fill="none" d="M388.7,84c-117.7,0-149.5,71-169.5,214.6l-5.8,40.8h106.9l2.5-17.4c14.2-98.5,28.4-162.8,67.6-191.2
		c22.5,30.9,23.4,100.2,10.9,189.5l-2.5,19.2h-65.6h-12.9H213.3h-11.8h-46.7l-12.5,89.3h58.5L154.9,757h106.9l45.9-328.2h78.5
		L340.3,757h106.9l64.3-456.7C531.5,156.6,513.9,84,388.7,84z"/>
</g>
</svg>
