<?xml version="1.0" encoding="utf-8"?>
<!-- Generator: Adobe Illustrator 22.0.0, SVG Export Plug-In . SVG Version: 6.00 Build 0)  -->
<svg version="1.1" id="Layer_1" xmlns="http://www.w3.org/2000/svg" xmlns:xlink="http://www.w3.org/1999/xlink" x="0px" y="0px"
	 viewBox="0 0 700 700" enable-background="new 0 0 700 700" xml:space="preserve">
<path fill="none" d="M415.1,8.1l-66.8,29.2l2.5-18.4H245.6L208,285.3h108.6l31.7-222.8c78.5,12.5,100.2,86.8,86,222.9H326.5h-9.9
	H208h-4.8h-60.4l-12.5,89.3h51.8h13.3H304h1.4h115.5c-23.4,122.7-66.8,232.1-116.1,270.5c-28.4-20-30.1-64.3-14.2-175.4l13.3-95.1
	H195.5l-15,105.9C158.7,631.9,179.6,692,309,692c143.6,0,200.4-153.6,231.3-368.2C569.6,120.9,530.3,8.1,415.1,8.1z"/>
</svg>
