<?xml version="1.0" encoding="utf-8"?>
<!-- Generator: Adobe Illustrator 22.0.0, SVG Export Plug-In . SVG Version: 6.00 Build 0)  -->
<svg version="1.1" id="Layer_1" xmlns="http://www.w3.org/2000/svg" xmlns:xlink="http://www.w3.org/1999/xlink" x="0px" y="0px"
	 viewBox="0 0 700 700" enable-background="new 0 0 700 700" xml:space="preserve">
<g>
	<path d="M556.2,100.1l-93.5,668H355.8l2.5-16.7l-62.6,25.1c-151.1,0-142.8-101.9-118.6-275.6l55.9-400h108.6l-55.9,400
		c-20.9,147.8-30.1,214.6,75.2,220.4l86.8-621.2H556.2z M290.7,15.8L278.2,5c20.9-34.2,55.9-81.8,96.9-81.8
		c25,0,44.3,43.4,71.8,43.4c20.9,0,40.1-14.2,63.5-35.9l35.1,60.1c-27.6,29.2-71.8,40.1-92.7,40.1c-58.5,0-77.7-54.3-107.7-54.3
		C327.5-23.4,314.9-12.6,290.7,15.8z"/>
</g>
</svg>
