<?xml version="1.0" encoding="utf-8"?>
<!-- Generator: Adobe Illustrator 22.0.0, SVG Export Plug-In . SVG Version: 6.00 Build 0)  -->
<svg version="1.1" id="Layer_1" xmlns="http://www.w3.org/2000/svg" xmlns:xlink="http://www.w3.org/1999/xlink" x="0px" y="0px"
	 viewBox="0 0 700 700" enable-background="new 0 0 700 700" xml:space="preserve">
<path fill="none" d="M473.3,108.2c33.4-10,74.3-39.2,74.3-84.3c0-57.6-55.9-86-97.7-86L423.2-8.7c21.7,3.3,62.6,18.4,62.6,53.4
	c0,20.9-17.5,43.4-52.6,44.3c-12.5-3.3-25.9-5-40.9-5c-126.9,0-187.9,135.3-213.8,336.5C151.8,625.1,176.9,762,309.6,762
	c45,0,81.5-16.6,111.1-46.8H307.1c-30.1-62.6-36.7-145.3-17.5-289.7c19.2-147.8,55.1-230.5,106-294.8
	c30.1,62.6,35.1,145.3,15.9,289.7c-20,147.7-53.4,230.4-104.3,294.7h113.6c54.9-56.1,86-158.9,103.4-289.6
	C545.1,272.7,535.9,156.6,473.3,108.2z"/>
</svg>
