<?xml version="1.0" encoding="utf-8"?>
<!-- Generator: Adobe Illustrator 22.0.0, SVG Export Plug-In . SVG Version: 6.00 Build 0)  -->
<svg version="1.1" id="Layer_1" xmlns="http://www.w3.org/2000/svg" xmlns:xlink="http://www.w3.org/1999/xlink" x="0px" y="0px"
	 viewBox="0 0 700 700" enable-background="new 0 0 700 700" xml:space="preserve">
<g>
	<polygon points="230.4,714.7 300.6,796.6 379.9,727.3 309.7,645.4 	"/>
	<path d="M402.4-96.9c-117.7,0-149.5,71-169.5,214.6l-5.8,40.4H334l2.4-17c14.2-98.5,28.4-162.8,67.6-191.2
		c22.5,30.9,23.4,100.2,10.9,189.5l-2.5,19.2h-55.3H334H227.1h-58.5L156.1,248h58.5l-45.9,328.2h106.9L321.4,248h78.5L354,576.1
		h106.9l64.3-456.7C545.2-24.2,527.7-96.9,402.4-96.9z"/>
</g>
</svg>
