<?xml version="1.0" encoding="utf-8"?>
<!-- Generator: Adobe Illustrator 22.0.0, SVG Export Plug-In . SVG Version: 6.00 Build 0)  -->
<svg version="1.1" id="Layer_1" xmlns="http://www.w3.org/2000/svg" xmlns:xlink="http://www.w3.org/1999/xlink" x="0px" y="0px"
	 viewBox="0 0 700 700" enable-background="new 0 0 700 700" xml:space="preserve">
<g>
	<path d="M425.8,97.7l18.4-25.9c-8.4-3.3-30.1-20-30.1-31.7c0-19.2,66-55.1,66-87.7c0-26.7-44.3-56.8-78.5-62.6l-36.7,40.1
		c32.6,10.9,49.3,24.2,49.3,34.2c0,20-49.3,50.9-49.3,74.3C364.8,63.5,394.9,83.5,425.8,97.7z"/>
	<path d="M401.6,136.1c-117.7,0-149.5,71-169.5,214.6l-5.8,40.4h106.9l2.4-17c14.2-98.5,28.4-162.8,67.6-191.2
		c22.5,30.9,23.4,100.2,10.9,189.5l-2.5,19.2h-49.3h-29.1H226.2h-58.5L155.2,481h58.5l-45.9,328.2h106.9L320.6,481h78.5l-45.9,328.2
		H460l64.3-456.7C544.4,208.8,526.8,136.1,401.6,136.1z"/>
</g>
</svg>
