<?xml version="1.0" encoding="utf-8"?>
<!-- Generator: Adobe Illustrator 22.0.0, SVG Export Plug-In . SVG Version: 6.00 Build 0)  -->
<svg version="1.1" id="Layer_1" xmlns="http://www.w3.org/2000/svg" xmlns:xlink="http://www.w3.org/1999/xlink" x="0px" y="0px"
	 viewBox="0 0 700 700" enable-background="new 0 0 700 700" xml:space="preserve">
<g>
	<path d="M312.7,130c-117.7,0-149.5,71-169.5,214.6l-5.8,40.4h106.9l2.4-17c14.2-98.5,28.4-162.8,67.6-191.2
		c22.5,30.9,23.4,100.2,10.9,189.5l-2.5,19.2h-40.2h-38.3H137.4H78.9l-12.5,89.3h58.5L78.9,803h106.9l45.9-328.2h78.5L264.3,803
		h106.9l64.3-456.7C455.5,202.6,438,130,312.7,130z"/>
	<path d="M330.2-7c-82.7,0-141.1,52.6-172,101l15.9,7.5c21.7-24.2,63.5-61.8,123.6-61.8c58.5,0,101,40.1,114.4,61.8l81.8-13.4
		C476.4,52.3,417.1-7,330.2-7z"/>
	<path d="M538.2-103.8c-1.7,54.3-71.8,89.3-96.9,89.3v8.4C533.1,8,610.8-49.6,635-98.8L538.2-103.8z"/>
</g>
</svg>
