<?xml version="1.0" encoding="utf-8"?>
<!-- Generator: Adobe Illustrator 22.0.0, SVG Export Plug-In . SVG Version: 6.00 Build 0)  -->
<svg version="1.1" id="Layer_1" xmlns="http://www.w3.org/2000/svg" xmlns:xlink="http://www.w3.org/1999/xlink" x="0px" y="0px"
	 viewBox="0 0 700 700" enable-background="new 0 0 700 700" xml:space="preserve">
<g>
	<path d="M375.1,35c-82.7,0-141.1,52.6-172,101l15.9,7.5c21.7-24.2,63.5-61.8,123.6-61.8c58.5,0,101,40.1,114.4,61.8l81.8-13.4
		C521.2,94.3,461.9,35,375.1,35z"/>
	<path d="M357.6,172c-117.7,0-149.5,71-169.5,214.6l-5.8,40.4h106.9l2.4-17c14.2-98.5,28.4-162.8,67.6-191.2
		c22.5,30.9,23.4,100.2,10.9,189.5l-2.5,19.2h-37h-41.5H182.2h-58.5l-12.5,89.3h58.5L123.8,845h106.9l45.9-328.2h78.5L309.1,845H416
		l64.3-456.7C500.4,244.6,482.8,172,357.6,172z"/>
	<path d="M589.7-83.6c0-26.7-44.3-56.8-78.5-62.6l-36.7,40.1c32.6,10.9,49.3,24.2,49.3,34.2c0,20-49.3,50.9-49.3,74.3
		c0,25,30.1,45.1,61,59.3l18.4-25.9c-8.4-3.3-30.1-20-30.1-31.7C523.7-15.1,589.7-51,589.7-83.6z"/>
</g>
</svg>
