<?xml version="1.0" encoding="utf-8"?>
<!-- Generator: Adobe Illustrator 22.0.0, SVG Export Plug-In . SVG Version: 6.00 Build 0)  -->
<svg version="1.1" id="Layer_1" xmlns="http://www.w3.org/2000/svg" xmlns:xlink="http://www.w3.org/1999/xlink" x="0px" y="0px"
	 viewBox="0 0 700 700" enable-background="new 0 0 700 700" xml:space="preserve">
<g>
	<path d="M347.5,143c-117.7,0-149.5,71-169.5,214.6l-5.8,40.4h106.9l2.4-17c14.2-98.5,28.4-162.8,67.6-191.2
		c22.5,30.9,23.4,100.2,10.9,189.5l-2.5,19.2h-35.4H279H172.1h-58.5l-12.5,89.3h58.5L113.7,816h106.9l45.9-328.2H345L299.1,816
		h106.9l64.3-456.7C490.3,215.6,472.7,143,347.5,143z"/>
	<path d="M563.8-110.1c-23.4,21.7-42.6,35.9-63.5,35.9c-27.6,0-46.8-43.4-71.8-43.4c-40.9,0-76,47.6-96.9,81.8l12.5,10.9
		c24.2-28.4,36.7-39.2,54.3-39.2c30.1,0,49.3,54.3,107.7,54.3c20.9,0,65.1-10.9,92.7-40.1L563.8-110.1z"/>
	<path d="M365,6c-82.7,0-141.1,52.6-172,101l15.9,7.5c21.7-24.2,63.5-61.8,123.6-61.8c58.5,0,101,40.1,114.4,61.8l81.8-13.4
		C511.2,65.3,451.9,6,365,6z"/>
</g>
</svg>
