<?xml version="1.0" encoding="utf-8"?>
<!-- Generator: Adobe Illustrator 22.0.0, SVG Export Plug-In . SVG Version: 6.00 Build 0)  -->
<svg version="1.1" id="Layer_1" xmlns="http://www.w3.org/2000/svg" xmlns:xlink="http://www.w3.org/1999/xlink" x="0px" y="0px"
	 viewBox="0 0 700 700" enable-background="new 0 0 700 700" xml:space="preserve">
<g>
	<polygon points="210.4,782.6 280.6,864.4 359.9,795.1 289.7,713.3 	"/>
	<path d="M367.4-119.2c58.5,0,101,40.1,114.4,61.8l81.8-13.4C546.1-106.7,486.8-166,400-166c-82.7,0-141.1,52.6-172,101l15.9,7.5
		C265.5-81.7,307.3-119.2,367.4-119.2z"/>
	<path d="M382.4-29c-117.7,0-149.5,71-169.5,214.6l-5.8,40.4H314l2.4-17c14.2-98.5,28.4-162.8,67.6-191.2
		c22.5,30.9,23.4,100.2,10.9,189.5l-2.5,19.2h-33.8H314H207.1h-58.5l-12.5,89.3h58.5L148.6,644h106.9l45.9-328.2h78.5L334,644h106.9
		l64.3-456.7C525.2,43.6,507.7-29,382.4-29z"/>
</g>
</svg>
