<?xml version="1.0" encoding="utf-8"?>
<!-- Generator: Adobe Illustrator 22.0.0, SVG Export Plug-In . SVG Version: 6.00 Build 0)  -->
<svg version="1.1" id="Layer_1" xmlns="http://www.w3.org/2000/svg" xmlns:xlink="http://www.w3.org/1999/xlink" x="0px" y="0px"
	 viewBox="0 0 700 700" enable-background="new 0 0 700 700" xml:space="preserve">
<g>
	<path d="M376.7,130.5c-117.7,0-149.5,71-169.5,214.6l-5.8,40.4h106.9l2.4-17c14.2-98.5,28.4-162.8,67.6-191.2
		c22.5,30.9,23.4,100.2,10.9,189.5l-2.5,19.2h-43h-35.5H201.4h-58.5l-12.5,89.3h58.5l-45.9,328.2h106.9l45.9-328.2h78.5l-45.9,328.2
		h106.9l64.3-456.7C519.5,203.2,502,130.5,376.7,130.5z"/>
	<path d="M570.4-98.3l-96.9-5c-1.7,54.3-71.8,89.3-96.9,89.3v8.4C468.6,8.6,546.2-49,570.4-98.3z"/>
	<path d="M409.3,51.2c-58.5,0-105.2-46.8-118.6-61.8L208.9,2.8c21.7,35.9,81,95.2,167.8,95.2c78.5,0,136.9-52.6,167.8-101l-15.9-7.5
		C507,13.6,465.2,51.2,409.3,51.2z"/>
</g>
</svg>
