<?xml version="1.0" encoding="utf-8"?>
<!-- Generator: Adobe Illustrator 22.0.0, SVG Export Plug-In . SVG Version: 6.00 Build 0)  -->
<svg version="1.1" id="Layer_1" xmlns="http://www.w3.org/2000/svg" xmlns:xlink="http://www.w3.org/1999/xlink" x="0px" y="0px"
	 viewBox="0 0 700 700" enable-background="new 0 0 700 700" xml:space="preserve">
<g>
	<path d="M469-5.6v-8.4c-25.1,0-95.2-35.1-96.9-89.3l-96.9,5C299.5-49,377.1,8.6,469-5.6z"/>
	<path d="M541.6-10.6c-21.7,24.2-63.5,61.8-119.4,61.8c-58.5,0-105.2-46.8-118.6-61.8L221.8,2.8c21.7,35.9,81,95.2,167.8,95.2
		c78.5,0,136.9-52.6,167.8-101L541.6-10.6z"/>
	<path d="M389.6,130.5c-117.7,0-149.5,71-169.5,214.6l-5.8,40.4h106.9l2.4-17c14.2-98.5,28.4-162.8,67.6-191.2
		c22.5,30.9,23.4,100.2,10.9,189.5l-2.5,19.2h-46.4h-32.1H214.3h-58.5l-12.5,89.3h58.5l-45.9,328.2h106.9l45.9-328.2h78.5
		l-45.9,328.2h106.9l64.3-456.7C532.4,203.2,514.9,130.5,389.6,130.5z"/>
</g>
</svg>
