<?xml version="1.0" encoding="utf-8"?>
<!-- Generator: Adobe Illustrator 22.0.0, SVG Export Plug-In . SVG Version: 6.00 Build 0)  -->
<svg version="1.1" id="Layer_1" xmlns="http://www.w3.org/2000/svg" xmlns:xlink="http://www.w3.org/1999/xlink" x="0px" y="0px"
	 viewBox="0 0 700 700" enable-background="new 0 0 700 700" xml:space="preserve">
<g>
	<path d="M425.5,62.3l18.4-25.9c-8.4-3.3-30.1-20-30.1-31.7c0-19.2,66-55.1,66-87.7c0-26.7-44.3-56.8-78.5-62.6l-36.7,40.1
		c32.6,10.9,49.3,24.2,49.3,34.2c0,20-49.3,50.9-49.3,74.3C364.5,28.1,394.6,48.1,425.5,62.3z"/>
	<path d="M541.5,31.4c-21.7,24.2-63.5,61.8-119.4,61.8c-58.5,0-105.2-46.8-118.6-61.8l-81.8,13.4c21.7,35.9,81,95.2,167.8,95.2
		c78.5,0,136.9-52.6,167.8-101L541.5,31.4z"/>
	<path d="M389.6,172.5c-117.7,0-149.5,71-169.5,214.6l-5.8,40.4h106.9l2.4-17c14.2-98.5,28.4-162.8,67.6-191.2
		c22.5,30.9,23.4,100.2,10.9,189.5l-2.5,19.2h-49.3h-29.1H214.2h-58.5l-12.5,89.3h58.5l-45.9,328.2h106.9l45.9-328.2h78.5
		l-45.9,328.2H448l64.3-456.7C532.4,245.2,514.8,172.5,389.6,172.5z"/>
</g>
</svg>
