<?xml version="1.0" encoding="utf-8"?>
<!-- Generator: Adobe Illustrator 22.0.0, SVG Export Plug-In . SVG Version: 6.00 Build 0)  -->
<svg version="1.1" id="Layer_1" xmlns="http://www.w3.org/2000/svg" xmlns:xlink="http://www.w3.org/1999/xlink" x="0px" y="0px"
	 viewBox="0 0 700 700" enable-background="new 0 0 700 700" xml:space="preserve">
<g>
	<path d="M338.6-63.5c30.1,0,49.3,54.3,107.7,54.3c20.9,0,65.1-10.9,92.7-40.1l-35.1-60.1c-23.4,21.7-42.6,35.9-63.5,35.9
		c-27.6,0-46.8-43.4-71.8-43.4c-40.9,0-76,47.6-96.9,81.8l12.5,10.9C308.5-52.7,321-63.5,338.6-63.5z"/>
	<path d="M389.5,143.5c-117.7,0-149.5,71-169.5,214.6l-5.8,40.4h106.9l2.4-17c14.2-98.5,28.4-162.8,67.6-191.2
		c22.5,30.9,23.4,100.2,10.9,189.5l-2.5,19.2h-52.3H321H214.1h-58.5l-12.5,89.3h58.5l-45.9,328.2h106.9l45.9-328.2H387l-45.9,328.2
		h106.9l64.3-456.7C532.3,216.2,514.7,143.5,389.5,143.5z"/>
	<path d="M541.5,2.4C519.8,26.6,478,64.2,422.1,64.2c-58.5,0-105.2-46.8-118.6-61.8l-81.8,13.4c21.7,35.9,81,95.2,167.8,95.2
		c78.5,0,136.9-52.6,167.8-101L541.5,2.4z"/>
</g>
</svg>
