<?xml version="1.0" encoding="utf-8"?>
<!-- Generator: Adobe Illustrator 22.0.0, SVG Export Plug-In . SVG Version: 6.00 Build 0)  -->
<svg version="1.1" id="Layer_1" xmlns="http://www.w3.org/2000/svg" xmlns:xlink="http://www.w3.org/1999/xlink" x="0px" y="0px"
	 viewBox="0 0 700 700" enable-background="new 0 0 700 700" xml:space="preserve">
<g>
	<polygon points="217.4,785.2 287.6,867 366.9,797.7 296.7,715.9 	"/>
	<path d="M389.4-26.5c-117.7,0-149.5,71-169.5,214.6l-5.8,40.4H321l2.4-17c14.2-98.5,28.4-162.8,67.6-191.2
		c22.5,30.9,23.4,100.2,10.9,189.5l-2.5,19.2h-55.3H321H214.1h-58.5l-12.5,89.3h58.5l-45.9,328.2h106.9l45.9-328.2h78.5L341,646.6
		h106.9l64.3-456.7C532.2,46.2,514.7-26.5,389.4-26.5z"/>
	<path d="M541.4-167.6c-21.7,24.2-63.5,61.8-119.4,61.8c-58.5,0-105.2-46.8-118.6-61.8l-81.8,13.4c21.7,35.9,81,95.2,167.8,95.2
		c78.5,0,136.9-52.6,167.8-101L541.4-167.6z"/>
</g>
</svg>
