<?xml version="1.0" encoding="utf-8"?>
<!-- Generator: Adobe Illustrator 24.1.0, SVG Export Plug-In . SVG Version: 6.00 Build 0)  -->
<svg version="1.1" id="Layer_1" xmlns="http://www.w3.org/2000/svg" xmlns:xlink="http://www.w3.org/1999/xlink" x="0px" y="0px"
	 viewBox="0 0 700 700" style="enable-background:new 0 0 700 700;" xml:space="preserve">
<path d="M302.3,642.7l70.1,81.8l-79.3,69.3L223,712L302.3,642.7z M206.3-94.6l-13.4,96H243l-10,71.3h108.6l10-71.3h177l13.4-96
	H206.3z M311.5,531.6c-25.8-37.5-20.8-94.3-5.8-201.2l11.7-85.2h134.4l12.5-89.3H329.9l11.6-82.6H232.9l-11.6,82.6h-50.1l-12.5,89.3
	h50.1l-17.5,125.3c-18.4,131.1,2.5,207.9,126.9,207.9c117.7,0,161.2-88.5,183.7-272.2l-108.6-1.7
	C388.3,389.6,357.4,484.8,311.5,531.6z"/>
</svg>
