<?xml version="1.0" encoding="utf-8"?>
<!-- Generator: Adobe Illustrator 24.1.0, SVG Export Plug-In . SVG Version: 6.00 Build 0)  -->
<svg version="1.1" id="Layer_1" xmlns="http://www.w3.org/2000/svg" xmlns:xlink="http://www.w3.org/1999/xlink" x="0px" y="0px"
	 viewBox="0 0 700 700" style="enable-background:new 0 0 700 700;" xml:space="preserve">
<path d="M338.2,35.7c0-23.4,49.3-54.3,49.3-74.3c0-10-16.7-23.4-49.3-34.2l36.7-40.1c34.2,5.8,78.5,35.9,78.5,62.6
	c0,32.6-66,68.5-66,87.7c0,11.7,21.7,28.4,30.1,31.7L399.1,95C368.2,80.8,338.2,60.7,338.2,35.7z M206.3,138.4l-13.4,96H243
	l-7.2,51.3h108.5l7.2-51.3h177.1l13.4-96H206.3z M311.4,764.6c-25.8-37.5-20.8-94.3-5.8-201.2l11.7-85.2h134.4l12.5-89.3H329.8
	l14.4-102.6H235.7l-14.5,102.6h-50.1l-12.5,89.3h50.1l-17.5,125.3c-18.4,131.1,2.5,207.9,126.9,207.9
	c117.7,0,161.2-88.5,183.7-272.2l-108.6-1.7C388.2,622.6,357.3,717.8,311.4,764.6z"/>
</svg>
