<?xml version="1.0" encoding="utf-8"?>
<!-- Generator: Adobe Illustrator 24.1.0, SVG Export Plug-In . SVG Version: 6.00 Build 0)  -->
<svg version="1.1" id="Layer_1" xmlns="http://www.w3.org/2000/svg" xmlns:xlink="http://www.w3.org/1999/xlink" x="0px" y="0px"
	 viewBox="0 0 700 700" style="enable-background:new 0 0 700 700;" xml:space="preserve">
<path d="M278.4,17L265.9,6.2c20.9-34.2,55.9-81.8,96.9-81.8c25.1,0,44.3,43.4,71.8,43.4c20.9,0,40.1-14.2,63.5-35.9l35,60.1
	c-27.6,29.2-71.8,40.1-92.7,40.1c-58.5,0-77.7-54.3-107.7-54.3C315.1-22.2,302.6-11.4,278.4,17z M310.9,727.6
	c-25.8-37.5-20.8-94.3-5.8-201.2l11.7-85.2h134.5l12.5-89.3H329.4l12.8-91.1H233.5l-12.8,91.1h-50.1l-12.5,89.3h50.1l-17.5,125.3
	c-18.4,131.1,2.5,207.9,126.9,207.9c117.7,0,161.2-88.5,183.7-272.2l-108.6-1.7C387.7,585.6,356.8,680.8,310.9,727.6z M205.7,101.4
	l-13.4,96h50.1l-8.8,62.9h108.7l8.8-62.9H528l13.4-96H205.7z"/>
</svg>
