<?xml version="1.0" encoding="utf-8"?>
<!-- Generator: Adobe Illustrator 24.1.0, SVG Export Plug-In . SVG Version: 6.00 Build 0)  -->
<svg version="1.1" id="Layer_1" xmlns="http://www.w3.org/2000/svg" xmlns:xlink="http://www.w3.org/1999/xlink" x="0px" y="0px"
	 viewBox="0 0 700 700" style="enable-background:new 0 0 700 700;" xml:space="preserve">
<path d="M128.1,132.3h335.7l-13.3,96h-177l-21.7,154.5h134.4l-12.5,89.3H239.2l-2.1,15.6H128.4l2.2-15.6H80.5L93,382.8h50.1
	l21.7-154.5h-50.1L128.1,132.3z M233.3,758.5c-25.8-37.5-20.8-94.3-5.8-201.2l9.5-69H128.3l-15.2,109.1
	C94.7,728.5,115.6,805.3,240,805.3c117.7,0,161.2-88.5,183.7-272.2l-108.6-1.7C310.1,616.5,279.2,711.7,233.3,758.5z M314.3-9.6
	c-82.7,0-141.1,52.6-172,101l15.9,7.5c21.7-24.2,63.5-61.8,123.6-61.8c58.5,0,101,40.1,114.4,61.8L478,85.5
	C460.5,49.6,401.2-9.7,314.3-9.6z M522.3-106.5c-1.7,54.2-71.8,89.3-96.9,89.3v8.4c91.9,14.2,169.5-43.4,193.7-92.7L522.3-106.5z"/>
</svg>
