<?xml version="1.0" encoding="utf-8"?>
<!-- Generator: Adobe Illustrator 24.1.0, SVG Export Plug-In . SVG Version: 6.00 Build 0)  -->
<svg version="1.1" id="Layer_1" xmlns="http://www.w3.org/2000/svg" xmlns:xlink="http://www.w3.org/1999/xlink" x="0px" y="0px"
	 viewBox="0 0 700 700" style="enable-background:new 0 0 700 700;" xml:space="preserve">
<path d="M178.6,132.3h335.7l-13.3,96H324l-21.7,154.5h134.4l-12.5,89.3H289.7l-1.3,9.2H179.8l1.3-9.2H131l12.5-89.3h50.1l21.7-154.5
	h-50.1L178.6,132.3z M283.8,758.5C258,721,263,664.2,278,557.3l10.4-75.5H179.7l-16.1,115.6c-18.4,131.1,2.5,207.9,126.9,207.9
	c117.7,0,161.2-88.5,183.7-272.2l-108.6-1.7C360.6,616.5,329.7,711.7,283.8,758.5z M472.6-106.5l-96.9,5
	C400-52.2,477.6,5.4,569.5-8.8v-8.4C544.4-17.2,474.3-52.2,472.6-106.5z M364.9-9.6c-82.7,0-141.1,52.6-172,101l15.9,7.5
	c21.7-24.2,63.5-61.8,123.6-61.8c58.5,0,101,40.1,114.4,61.8l81.8-13.4C511,49.6,451.7-9.7,364.9-9.6z"/>
</svg>
