<?xml version="1.0" encoding="utf-8"?>
<!-- Generator: Adobe Illustrator 24.1.0, SVG Export Plug-In . SVG Version: 6.00 Build 0)  -->
<svg version="1.1" id="Layer_1" xmlns="http://www.w3.org/2000/svg" xmlns:xlink="http://www.w3.org/1999/xlink" x="0px" y="0px"
	 viewBox="0 0 700 700" style="enable-background:new 0 0 700 700;" xml:space="preserve">
<path d="M360.2,573.4l108.6,1.7c-22.5,183.7-66,272.2-183.7,272.2c-124.4,0-145.3-76.8-126.9-207.9l17.5-125.3h-50.1l12.5-89.3h50.1
	l10.5-74.5h108.6l-10.5,74.5h134.4l-12.5,89.3H284.3l-11.7,85.2c-15,106.9-20,163.7,5.8,201.2C324.3,753.7,355.2,658.5,360.2,573.4z
	 M159.9,270.3H210l-11.2,79.4h108.6l11.2-79.4h177l13.5-96H173.3L159.9,270.3z M574-86.3c0-26.7-44.3-56.8-78.5-62.6l-36.7,40.1
	c32.6,10.8,49.3,24.2,49.3,34.2c0,20-49.3,50.9-49.3,74.3c0,25.1,30.1,45.1,61,59.3l18.4-25.9c-8.4-3.3-30.1-20-30.1-31.7
	C508.1-17.8,574-53.7,574-86.3z M359.4,32.4c-82.7,0-141.1,52.6-172,101l15.9,7.5c21.7-24.2,63.5-61.8,123.6-61.8
	c58.5,0,101,40.1,114.4,61.8l81.8-13.4C505.6,91.6,446.3,32.3,359.4,32.4z"/>
</svg>
