<?xml version="1.0" encoding="utf-8"?>
<!-- Generator: Adobe Illustrator 24.1.0, SVG Export Plug-In . SVG Version: 6.00 Build 0)  -->
<svg version="1.1" id="Layer_1" xmlns="http://www.w3.org/2000/svg" xmlns:xlink="http://www.w3.org/1999/xlink" x="0px" y="0px"
	 viewBox="0 0 700 700" style="enable-background:new 0 0 700 700;" xml:space="preserve">
<path d="M583.8-51.6c-27.6,29.2-71.8,40.1-92.7,40.1c-58.5,0-77.7-54.3-107.7-54.3c-17.5,0-30.1,10.9-54.3,39.2l-12.5-10.9
	c20.9-34.2,55.9-81.8,96.9-81.8c25.1,0,44.3,43.4,71.8,43.4c20.9,0,40.1-14.2,63.5-35.9L583.8-51.6z M150.3,242.3h50.1l-16.5,117.4
	h108.7l16.5-117.4h177l13.3-96H163.7L150.3,242.3z M268.9,772.5c-25.8-37.5-20.8-94.3-5.8-201.2l11.7-85.2h134.5l12.5-89.3H287.4
	l5.1-36.5H183.8l-5.1,36.5h-50.1l-12.5,89.3h50.1l-17.5,125.3c-18.4,131.1,2.5,207.9,126.9,207.9c117.7,0,161.2-88.5,183.7-272.2
	l-108.6-1.7C345.7,630.5,314.8,725.7,268.9,772.5z M349.9,4.4c-82.7,0-141.1,52.6-172,101l15.9,7.5c21.7-24.2,63.5-61.8,123.6-61.8
	c58.5,0,101,40.1,114.4,61.8l81.8-13.4C496.1,63.6,436.8,4.3,349.9,4.4z"/>
</svg>
