<?xml version="1.0" encoding="utf-8"?>
<!-- Generator: Adobe Illustrator 24.1.0, SVG Export Plug-In . SVG Version: 6.00 Build 0)  -->
<svg version="1.1" id="Layer_1" xmlns="http://www.w3.org/2000/svg" xmlns:xlink="http://www.w3.org/1999/xlink" x="0px" y="0px"
	 viewBox="0 0 700 700" style="enable-background:new 0 0 700 700;" xml:space="preserve">
<path d="M295.3,713.6l70.1,81.8l-79.3,69.3L216,782.9L295.3,713.6z M353-118.8c58.5,0,101,40.1,114.4,61.8l81.8-13.4
	c-17.6-35.9-76.9-95.2-163.7-95.2c-82.7,0-141.1,52.6-172,101l15.9,7.5C251.1-81.3,292.8-118.9,353-118.8z M304.5,602.5
	c-25.8-37.5-20.8-94.3-5.8-201.2l11.7-85.2h134.4l12.5-89.3H322.9l21.6-153.5H235.9l-21.6,153.5h-50.1l-12.5,89.3h50.1l-17.5,125.3
	c-18.4,131.1,2.5,207.9,126.9,207.9c117.7,0,161.2-88.5,183.7-272.2l-108.6-1.7C381.3,460.5,350.4,555.7,304.5,602.5z M185.9,72.3
	H236l-0.1,0.4h108.6l0.1-0.4h177l13.4-96H199.3L185.9,72.3z"/>
</svg>
