<?xml version="1.0" encoding="utf-8"?>
<!-- Generator: Adobe Illustrator 22.0.0, SVG Export Plug-In . SVG Version: 6.00 Build 0)  -->
<svg version="1.1" id="Layer_1" xmlns="http://www.w3.org/2000/svg" xmlns:xlink="http://www.w3.org/1999/xlink" x="0px" y="0px"
	 viewBox="0 0 700 700" enable-background="new 0 0 700 700" xml:space="preserve">
<g>
	<path d="M361.7,127.7c-44.4,0-80.8,16.6-110.3,46.8h113.7c30.1,62.6,35.1,145.3,15.9,289.7C360.9,612,327.5,694.7,276.5,759
		c-30.1-62.6-36.7-145.3-17.5-289.7c19.2-147.4,54.9-230,105.7-294.3H250.9c-54.6,56.1-86.2,158.8-102.9,289.2
		c-26.7,204.6-1.7,341.5,131.1,341.5c128.6,0,187.9-135.3,214.6-336.5C521.2,265.5,496.1,127.7,361.7,127.7z"/>
	<path d="M374.2-9.3c-82.7,0-141.1,52.6-172,101l15.9,7.5c21.7-24.2,63.5-61.8,123.6-61.8c58.5,0,101,40.1,114.4,61.8l81.8-13.4
		C520.4,50,461.1-9.3,374.2-9.3z"/>
	<path d="M482-106.1l-96.9,5C409.3-51.8,487,5.8,578.8-8.4v-8.4C553.8-16.8,483.6-51.8,482-106.1z"/>
</g>
</svg>
