<?xml version="1.0" encoding="utf-8"?>
<!-- Generator: Adobe Illustrator 22.0.0, SVG Export Plug-In . SVG Version: 6.00 Build 0)  -->
<svg version="1.1" id="Layer_1" xmlns="http://www.w3.org/2000/svg" xmlns:xlink="http://www.w3.org/1999/xlink" x="0px" y="0px"
	 viewBox="0 0 700 700" enable-background="new 0 0 700 700" xml:space="preserve">
<g>
	<path d="M369.2,32.7c-82.7,0-141.1,52.6-172,101l15.9,7.5c21.7-24.2,63.5-61.8,123.6-61.8c58.5,0,101,40.1,114.4,61.8l81.8-13.4
		C515.3,92,456.1,32.7,369.2,32.7z"/>
	<path d="M356.7,169.7c-44.4,0-80.8,16.6-110.3,46.8H360c30.1,62.6,35.1,145.3,15.9,289.7C355.9,654,322.5,736.7,271.5,801
		c-30.1-62.6-36.7-145.3-17.5-289.7c19.2-147.4,54.9-230,105.7-294.3H245.9c-54.6,56.1-86.2,158.8-102.9,289.2
		c-26.7,204.6-1.7,341.5,131.1,341.5c128.6,0,187.9-135.3,214.6-336.5C516.2,307.5,491.1,169.7,356.7,169.7z"/>
	<path d="M583.8-85.8c0-26.7-44.3-56.8-78.5-62.6l-36.7,40.1c32.6,10.9,49.3,24.2,49.3,34.2c0,20-49.3,50.9-49.3,74.3
		c0,25,30.1,45.1,61,59.3l18.4-25.9c-8.4-3.3-30.1-20-30.1-31.7C517.9-17.4,583.8-53.3,583.8-85.8z"/>
</g>
</svg>
