<?xml version="1.0" encoding="utf-8"?>
<!-- Generator: Adobe Illustrator 22.0.0, SVG Export Plug-In . SVG Version: 6.00 Build 0)  -->
<svg version="1.1" id="Layer_1" xmlns="http://www.w3.org/2000/svg" xmlns:xlink="http://www.w3.org/1999/xlink" x="0px" y="0px"
	 viewBox="0 0 700 700" enable-background="new 0 0 700 700" xml:space="preserve">
<g>
	<path d="M558.9-112.3c-23.4,21.7-42.6,35.9-63.5,35.9c-27.6,0-46.8-43.4-71.8-43.4c-40.9,0-76,47.6-96.9,81.8l12.5,10.9
		c24.2-28.4,36.7-39.2,54.3-39.2c30.1,0,49.3,54.3,107.7,54.3c20.9,0,65.1-10.9,92.7-40.1L558.9-112.3z"/>
	<path d="M347.7,140.7c-44.4,0-80.8,16.6-110.3,46.8H351c30.1,62.6,35.1,145.3,15.9,289.7C346.8,625,313.4,707.7,262.5,772
		c-30.1-62.6-36.7-145.3-17.5-289.7c19.2-147.4,54.9-230,105.7-294.3H236.9c-54.6,56.1-86.2,158.8-102.9,289.2
		c-26.7,204.6-1.7,341.5,131.1,341.5c128.6,0,187.9-135.3,214.6-336.5C507.2,278.5,482.1,140.7,347.7,140.7z"/>
	<path d="M360.2,3.7c-82.7,0-141.1,52.6-172,101l15.9,7.5c21.7-24.2,63.5-61.8,123.6-61.8c58.5,0,101,40.1,114.4,61.8l81.8-13.4
		C506.3,63,447,3.7,360.2,3.7z"/>
</g>
</svg>
