<?xml version="1.0" encoding="utf-8"?>
<!-- Generator: Adobe Illustrator 22.0.0, SVG Export Plug-In . SVG Version: 6.00 Build 0)  -->
<svg version="1.1" id="Layer_1" xmlns="http://www.w3.org/2000/svg" xmlns:xlink="http://www.w3.org/1999/xlink" x="0px" y="0px"
	 viewBox="0 0 700 700" enable-background="new 0 0 700 700" xml:space="preserve">
<g>
	<polygon points="209,783.3 279.1,865.1 358.5,795.8 288.3,714 	"/>
	<path d="M362.6-118.5c58.5,0,101,40.1,114.4,61.8l81.8-13.4c-17.5-35.9-76.8-95.2-163.7-95.2c-82.7,0-141.1,52.6-172,101l15.9,7.5
		C260.8-80.9,302.5-118.5,362.6-118.5z"/>
	<path d="M382.7-28.3c-44.4,0-80.8,16.6-110.3,46.8H386c30.1,62.6,35.1,145.3,15.9,289.7C381.8,456,348.4,538.7,297.5,603
		c-30.1-62.6-36.7-145.3-17.5-289.7c19.2-147.4,54.9-230,105.7-294.3H271.8c-54.6,56.1-86.2,158.8-102.9,289.2
		c-26.7,204.6-1.7,341.5,131.1,341.5c128.6,0,187.9-135.3,214.6-336.5C542.2,109.5,517.1-28.3,382.7-28.3z"/>
</g>
</svg>
