<?xml version="1.0" encoding="utf-8"?>
<!-- Generator: Adobe Illustrator 22.0.0, SVG Export Plug-In . SVG Version: 6.00 Build 0)  -->
<svg version="1.1" id="Layer_1" xmlns="http://www.w3.org/2000/svg" xmlns:xlink="http://www.w3.org/1999/xlink" x="0px" y="0px"
	 viewBox="0 0 700 700" enable-background="new 0 0 700 700" xml:space="preserve">
<g>
	<path d="M473.7,164.3c33.4-10,74.3-39.2,74.3-84.3c0-57.6-55.9-86-97.7-86l-26.7,53.4c21.7,3.3,62.6,18.4,62.6,53.4
		c0,20.9-17.5,43.4-52.6,44.3c-12.5-3.3-25.9-5-40.9-5c-44.4,0-80.8,16.6-110.3,46.8H396c30.1,62.6,35.1,145.3,15.9,289.7
		c-20,147.8-53.4,230.5-104.4,294.8c-30.1-62.6-36.7-145.3-17.5-289.7c19.2-147.4,54.9-230,105.7-294.3H281.9
		c-54.6,56.1-86.2,158.8-102.9,289.2c-26.7,204.6-1.7,341.5,131.1,341.5c128.6,0,187.9-135.3,214.6-336.5
		C545.5,328.8,536.3,212.7,473.7,164.3z"/>
	<path d="M388.5,88.3l18.4-25.9c-8.4-3.3-30.1-20-30.1-31.7c0-19.2,66-55.1,66-87.7c0-26.7-44.3-56.8-78.5-62.6l-36.7,40.1
		c32.6,10.9,49.3,24.2,49.3,34.2c0,20-49.3,50.9-49.3,74.3C327.6,54.1,357.6,74.1,388.5,88.3z"/>
</g>
</svg>
