<?xml version="1.0" encoding="utf-8"?>
<!-- Generator: Adobe Illustrator 22.0.0, SVG Export Plug-In . SVG Version: 6.00 Build 0)  -->
<svg version="1.1" id="Layer_1" xmlns="http://www.w3.org/2000/svg" xmlns:xlink="http://www.w3.org/1999/xlink" x="0px" y="0px"
	 viewBox="0 0 700 700" enable-background="new 0 0 700 700" xml:space="preserve">
<g>
	<path d="M556.1,137.1l-93.5,668H355.7l2.5-16.7l-62.6,25.1c-151.1,0-142.8-101.9-118.6-275.6l55.9-400h108.6l-55.9,400
		c-20.9,147.8-30.1,214.6,75.2,220.4l86.8-621.2H556.1z M349.8,34.4c0-23.4,49.3-54.3,49.3-74.3c0-10-16.7-23.4-49.3-34.2l36.7-40.1
		c34.2,5.8,78.5,35.9,78.5,62.6c0,32.6-66,68.5-66,87.7c0,11.7,21.7,28.4,30.1,31.7l-18.4,25.9C379.9,79.5,349.8,59.5,349.8,34.4z"
		/>
</g>
</svg>
