<?xml version="1.0" encoding="utf-8"?>
<!-- Generator: Adobe Illustrator 22.0.0, SVG Export Plug-In . SVG Version: 6.00 Build 0)  -->
<svg version="1.1" id="Layer_1" xmlns="http://www.w3.org/2000/svg" xmlns:xlink="http://www.w3.org/1999/xlink" x="0px" y="0px"
	 viewBox="0 0 700 700" enable-background="new 0 0 700 700" xml:space="preserve">
<g>
	<path d="M525.2,128.7l-91.9,653.8H326.5l2.5-16.7l-62.6,25.1c-151.1,0-142.8-101.9-118.6-275.6l55.9-400h108.6l-55.9,400
		c-20.9,147.8-30.1,214.6,75.2,220.4l86.8-621.2h51.8c35.9,0,54.3-23.4,54.3-44.3c0-35.1-40.9-50.1-62.6-53.4l26.7-53.4
		c41.8,0,97.7,28.4,97.7,86C586.2,88.6,555.3,115.3,525.2,128.7z M225.4-85.9l96.9-5c1.7,54.3,71.8,89.3,96.9,89.3v8.4
		C327.3,20.9,249.7-36.7,225.4-85.9z"/>
</g>
</svg>
