<?xml version="1.0" encoding="utf-8"?>
<!-- Generator: Adobe Illustrator 22.0.0, SVG Export Plug-In . SVG Version: 6.00 Build 0)  -->
<svg version="1.1" id="Layer_1" xmlns="http://www.w3.org/2000/svg" xmlns:xlink="http://www.w3.org/1999/xlink" x="0px" y="0px"
	 viewBox="0 0 700 700" enable-background="new 0 0 700 700" xml:space="preserve">
<g>
	<path d="M524.4,151.7l-91.9,653.8H325.7l2.5-16.7l-62.6,25.1C114.4,813.8,122.8,712,147,538.3l55.9-400h108.6l-55.9,400
		c-20.9,147.8-30.1,214.6,75.2,220.4l86.8-621.2h51.8c35.9,0,54.3-23.4,54.3-44.3c0-35.1-40.9-50.1-62.6-53.4l26.7-53.4
		c41.8,0,97.7,28.4,97.7,86C585.3,111.6,554.5,138.3,524.4,151.7z M319.8,34.8c0-23.4,49.3-54.3,49.3-74.3c0-10-16.7-23.4-49.3-34.2
		l36.7-40.1C390.8-108,435-78,435-51.2c0,32.6-66,68.5-66,87.7c0,11.7,21.7,28.4,30.1,31.7L380.8,94
		C349.9,79.9,319.8,59.8,319.8,34.8z"/>
</g>
</svg>
