<?xml version="1.0" encoding="utf-8"?>
<!-- Generator: Adobe Illustrator 22.0.0, SVG Export Plug-In . SVG Version: 6.00 Build 0)  -->
<svg version="1.1" id="Layer_1" xmlns="http://www.w3.org/2000/svg" xmlns:xlink="http://www.w3.org/1999/xlink" x="0px" y="0px"
	 viewBox="0 0 700 700" enable-background="new 0 0 700 700" xml:space="preserve">
<g>
	<path d="M524.6,166.7l-91.9,653.8H325.8l2.5-16.7l-62.6,25.1c-151.1,0-142.8-101.9-118.6-275.6l55.9-400h108.6l-55.9,400
		c-20.9,147.8-30.1,214.6,75.2,220.4l86.8-621.2h51.8c35.9,0,54.3-23.4,54.3-44.3c0-35.1-40.9-50.1-62.6-53.4l26.7-53.4
		c41.8,0,97.7,28.4,97.7,86C585.5,126.6,554.6,153.3,524.6,166.7z M258.2-37.1l-12.5-10.9c20.9-34.2,55.9-81.8,96.9-81.8
		c25.1,0,44.3,43.4,71.8,43.4c20.9,0,40.1-14.2,63.5-35.9l35.1,60.1C485.3-32.9,441.1-22,420.2-22c-58.5,0-77.7-54.3-107.7-54.3
		C294.9-76.3,282.4-65.5,258.2-37.1z"/>
</g>
</svg>
