<?xml version="1.0" encoding="utf-8"?>
<!-- Generator: Adobe Illustrator 22.0.0, SVG Export Plug-In . SVG Version: 6.00 Build 0)  -->
<svg version="1.1" id="Layer_1" xmlns="http://www.w3.org/2000/svg" xmlns:xlink="http://www.w3.org/1999/xlink" x="0px" y="0px"
	 viewBox="0 0 700 700" enable-background="new 0 0 700 700" xml:space="preserve">
<g>
	<path d="M524.8-4.3l-91.9,653.8H326l2.5-16.7l-62.6,25.1c-151.1,0-142.8-101.9-118.6-275.6l55.9-400h108.6l-55.9,400
		C235,530.1,225.8,596.9,331,602.7l86.8-621.2h51.8c35.9,0,54.3-23.4,54.3-44.3c0-35.1-40.9-50.1-62.6-53.4l26.7-53.4
		c41.8,0,97.7,28.4,97.7,86C585.7-44.4,554.8-17.7,524.8-4.3z M279.3,718.8l70.1,81.8l-79.3,69.3l-70.1-81.8L279.3,718.8z"/>
</g>
</svg>
