<?xml version="1.0" encoding="utf-8"?>
<!-- Generator: Adobe Illustrator 22.0.0, SVG Export Plug-In . SVG Version: 6.00 Build 0)  -->
<svg version="1.1" id="Layer_1" xmlns="http://www.w3.org/2000/svg" xmlns:xlink="http://www.w3.org/1999/xlink" x="0px" y="0px"
	 viewBox="0 0 700 700" enable-background="new 0 0 700 700" xml:space="preserve">
<g>
	<path d="M550.4,139.3l-52.6,374.1c-25.9,181.2-78.5,298.9-207.9,298.9c-112.7,0-140.3-65.1-123.6-185.4l109.4,1.7
		c-12.5,67.6-5,107.7,11.7,136.9c47.6-50.9,81.8-106.9,97.7-221.3l1.7-9.2L321.6,561c-151.1,0-154.5-97.7-129.4-275.6L213,139.3
		h108.6l-20.9,146.1c-21.7,154.5-20,216.3,89.3,221.3l51.8-367.4H550.4z M344.9,36.6c0-23.4,49.3-54.3,49.3-74.3
		c0-10-16.7-23.4-49.3-34.2l36.7-40.1c34.2,5.8,78.5,35.9,78.5,62.6c0,32.6-66,68.5-66,87.7c0,11.7,21.7,28.4,30.1,31.7l-18.4,25.9
		C375,81.7,344.9,61.6,344.9,36.6z"/>
</g>
</svg>
