<?xml version="1.0" encoding="utf-8"?>
<!-- Generator: Adobe Illustrator 22.0.0, SVG Export Plug-In . SVG Version: 6.00 Build 0)  -->
<svg version="1.1" id="Layer_1" xmlns="http://www.w3.org/2000/svg" xmlns:xlink="http://www.w3.org/1999/xlink" x="0px" y="0px"
	 viewBox="0 0 700 700" enable-background="new 0 0 700 700" xml:space="preserve">
<g>
	<path d="M550.5,101.3l-52.6,374.1C472,656.6,419.4,774.3,290,774.3c-112.7,0-140.3-65.1-123.6-185.4l109.4,1.7
		c-12.5,67.6-5,107.7,11.7,136.9c47.6-50.9,81.8-106.9,97.7-221.3l1.7-9.2L321.7,523c-151.1,0-154.5-97.7-129.4-275.6l20.9-146.1
		h108.6l-20.9,146.1c-21.7,154.5-20,216.3,89.3,221.3l51.8-367.4H550.5z M285.8,16.9L273.3,6.1c20.9-34.2,55.9-81.8,96.9-81.8
		c25,0,44.3,43.4,71.8,43.4c20.9,0,40.1-14.2,63.5-35.9l35.1,60.1C512.9,21.1,468.7,32,447.8,32c-58.5,0-77.7-54.3-107.7-54.3
		C322.5-22.3,310-11.4,285.8,16.9z"/>
</g>
</svg>
