<?xml version="1.0" encoding="utf-8"?>
<!-- Generator: Adobe Illustrator 24.1.0, SVG Export Plug-In . SVG Version: 6.00 Build 0)  -->
<svg version="1.1" id="Layer_1" xmlns="http://www.w3.org/2000/svg" xmlns:xlink="http://www.w3.org/1999/xlink" x="0px" y="0px"
	 viewBox="0 0 56.6 142.4" style="enable-background:new 0 0 56.6 142.4;" xml:space="preserve">
<path d="M0,524.4h79.5V353.1h44.7c57,0,104.1-44.7,104.1-101.7V55.5c0-57-47.1-104.1-104.1-104.1H0v76.8h22.2v-54.6h101.7
	c44.7,0,81.9,37.2,81.9,81.9v195.9c-2.4,44.7-37.2,79.5-81.9,79.5H57v171.3H22.2v-474H0V524.4z"/>
<path d="M57,298.5h57c34.8,0,54.6-22.2,54.6-54.6V62.7c0-34.8-19.8-57-54.6-57H57v22.2h57c22.2,0,32.4,12.3,32.4,34.8v181.2
	c0,22.2-9.9,32.4-32.4,32.4H79.5V28.2H57V298.5z"/>
</svg>
