<?xml version="1.0" encoding="utf-8"?>
<!-- Generator: Adobe Illustrator 24.1.0, SVG Export Plug-In . SVG Version: 6.00 Build 0)  -->
<svg version="1.1" id="Layer_1" xmlns="http://www.w3.org/2000/svg" xmlns:xlink="http://www.w3.org/1999/xlink" x="0px" y="0px"
	 viewBox="0 0 121 149.6" style="enable-background:new 0 0 121 149.6;" xml:space="preserve">
<style type="text/css">
	.st0{fill:none;}
</style>
<path id="Layer_2_1_" class="st0" d="M39.6,36.6v163.5h79.2V20.4h39c13.5,0,27,1.5,40.2,4.8c11.7,3,22.8,8.1,32.4,15.6
	c9.6,7.5,17.1,17.4,21.6,28.8c5.7,13.8,8.1,28.8,7.8,43.8c0,18-2.7,33-7.8,45c-4.5,11.4-12,21.3-21.6,28.8s-20.7,12.6-32.4,15
	c-13.2,3-26.7,4.2-40.2,4.2h-39v-5.7H39.6v182.7c0,17.7-13.2,26.4-39.6,26.4V420h158.4v-10.2c-26.4,0-39.6-8.7-39.6-26.4V226.8h72.6
	c19.2,0,38.4-2.1,57.3-6.3c16.8-3.6,32.4-10.5,46.8-19.8c13.2-9,24.3-21,31.8-35.1c7.8-14.4,11.7-31.8,11.7-52.2
	c0-36.9-12.6-64.8-37.5-84.3C276.6,9.6,239.7,0,191.4,0H0v10.2C26.4,10.2,39.6,18.9,39.6,36.6z"/>
</svg>
