<?xml version="1.0" encoding="utf-8"?>
<!-- Generator: Adobe Illustrator 24.1.0, SVG Export Plug-In . SVG Version: 6.00 Build 0)  -->
<svg version="1.1" id="Layer_1" xmlns="http://www.w3.org/2000/svg" xmlns:xlink="http://www.w3.org/1999/xlink" x="0px" y="0px"
	 viewBox="0 0 58.8 144.8" style="enable-background:new 0 0 58.8 144.8;" xml:space="preserve">
<style type="text/css">
	.st0{fill:none;}
</style>
<path id="Layer_2_1_" class="st0" d="M195,195.3l-68.4-33.6c-28.2-13.8-34.5-19.2-34.5-60v-60c0.9-15.9,13.2-28.2,29.1-29.1h23.7
	c15.9,0.6,28.8,13.2,29.1,29.1v82.8l91.2-30V41.7C265.2-22.8,212.7-75,148.5-75h-30.9C62.4-75,14.7-36.3,3.3,18h26.4
	c10.8-39.6,46.8-66.9,87.9-67.5h30.9c51,2.7,91.2,40.2,91.2,91.2v34.5l-40.2,12.9V41.7c0-30-24.6-54.6-54.6-54.6h-23.7
	c-30,0.6-54.3,24.6-54.6,54.6v60c0,44.7,10.8,63.9,49.2,82.8l68.4,33.6c54.6,28.2,58.2,72.9,58.2,128.4v121.2
	c-0.9,50.1-41.1,90.3-91.2,91.2h-34.5c-50.1-0.9-90.3-41.1-91.2-91.2V435l40.2-13.8v46.5c0.9,30,24.6,53.7,54.6,54.6h27.3
	c30-0.6,54.3-24.6,54.6-54.6V330.3c0-40.2-12.9-66.6-52.8-85.5l-63.9-32.1c-35.4-17.4-59.1-57.3-59.1-96.6V41.4
	c0-7.8,0.9-15.6,3.3-22.8H3.3c-1.5,7.2-2.4,15-2.4,22.8v74.7c0,50.7,28.8,96.6,73.8,119.4l63.9,31.8c30,15.6,38.4,29.1,38.4,63V468
	c0,15.9-13.2,29.1-29.1,29.1h-27.3c-15.9,0-29.1-13.2-29.1-29.1v-81L0,416.7v51c0,64.2,51.6,116.7,115.8,116.7c0.6,0,0.6,0,0.9,0
	h34.5c64.2,0,116.7-52.5,116.7-116.7V346.5C267.9,293.7,267.9,231.9,195,195.3z"/>
</svg>
