<?xml version="1.0" encoding="utf-8"?>
<!-- Generator: Adobe Illustrator 24.1.0, SVG Export Plug-In . SVG Version: 6.00 Build 0)  -->
<svg version="1.1" id="Layer_1" xmlns="http://www.w3.org/2000/svg" xmlns:xlink="http://www.w3.org/1999/xlink" x="0px" y="0px"
	 viewBox="0 0 157 134" style="enable-background:new 0 0 157 134;" xml:space="preserve">
<g>
	<path d="M321.5,129.5h-87.3v69h30.6c14.7,0,22.2,4.8,22.2,17.4v4.8c0,12.3-7.5,17.4-22.2,17.4h-64.2c-14.7,0-22.2-4.8-22.2-17.4
		V206l-111,36.9v7.5c0,32.1,27.3,54.3,61.8,54.3h207.3c36.9,0,61.8-22.2,61.8-54.3v-49.2C398,159.2,365.9,129.5,321.5,129.5z"/>
	<path d="M336.8,23H129.5c-36.9,0-61.8,22.2-61.8,54.3v49.5c0,42,32.1,71.7,76.5,71.7h90v-69h-33.3c-14.7,0-22.2-4.8-22.2-17.4v-4.8
		c0-12.3,7.5-17.4,22.2-17.4h64.2c14.7,0,22.2,4.8,22.2,17.4V122l111-39.6v-4.8C398.6,45.2,373.7,23,336.8,23z"/>
</g>
</svg>
