<?xml version="1.0" encoding="utf-8"?>
<!-- Generator: Adobe Illustrator 24.1.0, SVG Export Plug-In . SVG Version: 6.00 Build 0)  -->
<svg version="1.1" id="Layer_1" xmlns="http://www.w3.org/2000/svg" xmlns:xlink="http://www.w3.org/1999/xlink" x="0px" y="0px"
	 viewBox="0 0 71.6 162.4" style="enable-background:new 0 0 71.6 162.4;" xml:space="preserve">
<style type="text/css">
	.st0{fill:none;}
</style>
<path id="Layer_2_1_" class="st0" d="M2.4,291h81C72,375,81,420,106.2,453.6c16.8-18.6,29.4-52.8,29.4-84.6
	c0-62.4-33.6-99-79.8-143.4C11.4,182.4,0,145.8,0,103.8C0,47.4,25.8,0,100.8,0C187.8,0,204,45,201,144h-79.8
	c1.2-42.6-4.2-85.8-18-110.4c-10.8,16.2-23.4,37.2-23.4,67.2c0,38.4,36,78,82.2,123.6c37.2,37.2,52.8,83.4,52.8,135
	c0,72.6-22.8,127.8-109.8,127.8C13.2,487.2-7.8,427.8,2.4,291z"/>
</svg>
