<?xml version="1.0" encoding="utf-8"?>
<!-- Generator: Adobe Illustrator 24.1.0, SVG Export Plug-In . SVG Version: 6.00 Build 0)  -->
<svg version="1.1" id="Layer_1" xmlns="http://www.w3.org/2000/svg" xmlns:xlink="http://www.w3.org/1999/xlink" x="0px" y="0px"
	 viewBox="0 0 185.6 148" style="enable-background:new 0 0 185.6 148;" xml:space="preserve">
<style type="text/css">
	.st0{fill:none;}
</style>
<path id="Layer_2_1_" class="st0" d="M294.6,444c-95.4,0-199.2-24-251.4-41.4L0,268.2C70.8,302.4,176.4,348,286.8,348
	c82.8,0,144-13.8,144-37.8c0-64.8-345-34.2-345-187.2C85.8,39.6,196.2,0,313.2,0c48,0,95.4,9.6,126,21.6L498,142.2
	C440.4,117,377.4,93,313.2,93c-45,0-101.4,9.6-101.4,33.6c0,56.4,345,35.4,345,183.6C556.8,406.2,412.8,444,294.6,444z"/>
</svg>
