<?xml version="1.0" encoding="utf-8"?>
<!-- Generator: Adobe Illustrator 24.1.0, SVG Export Plug-In . SVG Version: 6.00 Build 0)  -->
<svg version="1.1" id="Layer_1" xmlns="http://www.w3.org/2000/svg" xmlns:xlink="http://www.w3.org/1999/xlink" x="0px" y="0px"
	 viewBox="0 0 94.2 143.2" style="enable-background:new 0 0 94.2 143.2;" xml:space="preserve">
<style type="text/css">
	.st0{fill:none;}
</style>
<path id="Layer_2_1_" class="st0" d="M138.6,320.4c18.6,0,28.2-13.2,28.2-25.8c0-15.6-6.6-29.4-52.2-46.8
	C55.2,225,10.2,190.8,10.2,118.2C10.2,54.6,64.8,0,136.8,0C195,0,244.2,36.6,260.4,90l-102.6,28.2c-1.8-8.4-9.3-14.7-18-14.4
	c-9.6,0-15.6,5.4-15.6,14.4c0,14.4,20.4,27.6,57.6,40.8c61.8,21.6,100.8,58.2,100.8,129.6c0,76.8-63.6,141-144,141
	C72,429.6,16.8,385.2,0,328.8l103.2-33C108.3,310.8,122.7,321,138.6,320.4z"/>
</svg>
