<?xml version="1.0" encoding="utf-8"?>
<!-- Generator: Adobe Illustrator 24.1.0, SVG Export Plug-In . SVG Version: 6.00 Build 0)  -->
<svg version="1.1" id="Layer_1" xmlns="http://www.w3.org/2000/svg" xmlns:xlink="http://www.w3.org/1999/xlink" x="0px" y="0px"
	 viewBox="0 0 108 151.2" style="enable-background:new 0 0 108 151.2;" xml:space="preserve">
<style type="text/css">
	.st0{fill:none;}
</style>
<path id="Layer_2_1_" class="st0" d="M77.4,81.6c0,15,6,29.4,16.5,39.9c12.3,12.9,26.1,24.3,41.1,33.9
	c16.5,10.8,34.2,21.6,53.4,32.1c18.6,10.2,36.3,21.6,53.4,34.5c15.6,11.7,29.7,25.8,41.1,41.7c11.1,15.6,16.8,34.5,16.5,53.7
	c0,15-3,29.7-8.7,43.5c-6,14.1-14.7,26.4-26.1,36.6c-12.9,11.4-27.6,19.8-43.8,25.2c-19.8,6.6-40.8,9.6-61.8,9.3
	c-38.4,0-83.7-11.7-136.2-35.4c-7.5-2.4-12.3-1.5-14.4,3c-2.1,4.8-3,10.2-3,15.6H0.6L0,312.6h10.2c2.7,15.6,9,30.3,18.6,42.6
	c9.3,12.3,21,22.8,33.9,31.2c13.2,8.4,27.6,14.7,42.6,18.9c14.7,4.2,29.7,6.3,44.7,6.3c10.5,0,21.3-1.2,31.5-3.9
	c9.6-2.4,18.6-6.3,26.7-12c7.5-5.4,13.8-12.6,18.3-20.7c4.8-9,7.2-19.2,6.9-29.4c0-14.4-6-28.5-16.2-38.7
	c-12.3-12.6-25.8-23.7-40.5-33c-16.2-10.5-33.6-21-52.5-31.5c-18.3-10.2-35.7-21.3-52.5-33.9c-15.3-11.4-29.1-25.2-40.5-40.5
	c-10.8-15-16.5-33-16.2-51.6C14.7,100.2,17.7,84,23.7,69c5.4-14.1,14.1-26.7,25.2-36.9C60.6,21.6,74.1,13.5,89.1,8.4
	c17.4-5.7,35.4-8.7,53.7-8.4c8.4,0,17.1,0.6,25.5,2.1c7.8,1.5,15.3,3.3,22.8,5.7c7.5,2.4,15,5.1,22.5,8.4
	c7.5,3.3,15.9,6.9,25.2,10.8c7.2,3.6,12.6,3,16.2-1.2c3.9-4.8,5.7-10.5,5.4-16.5h4.8v97.8H255c0-12.6-3-24.9-9-35.7
	c-6-10.8-13.8-20.7-23.4-28.5c-9.6-8.1-20.4-14.4-32.1-18.9c-11.1-4.8-22.8-7.2-34.5-7.2c-10.2,0-20.1,1.2-30,3.6
	c-9,2.1-17.4,6-25.2,11.1c-7.2,5.1-13.2,12-17.1,19.8C79.2,60.9,77.1,71.1,77.4,81.6z"/>
</svg>
