<?xml version="1.0" encoding="utf-8"?>
<!-- Generator: Adobe Illustrator 24.1.0, SVG Export Plug-In . SVG Version: 6.00 Build 0)  -->
<svg version="1.1" id="Layer_1" xmlns="http://www.w3.org/2000/svg" xmlns:xlink="http://www.w3.org/1999/xlink" x="0px" y="0px"
	 viewBox="0 0 79.7 162.4" style="enable-background:new 0 0 79.7 162.4;" xml:space="preserve">
<style type="text/css">
	.st0{fill:none;}
</style>
<path id="Layer_2_1_" class="st0" d="M147.9,0c89.4,0,101.4,45.6,84.6,144.6l-79.8-1.2c7.2-42.6,9-85.8,0-109.8
	c-14.4,16.8-31.2,37.8-35.4,69c-5.4,37.2,22.8,77.4,61.8,123c31.2,36.6,44.4,84.6,35.4,145.8S177.9,487.2,92.7,487.2
	c-93.6,0-108.6-60-79.2-196.8l81,1.2c-23.4,84-22.2,129-3,162c24.3-22.8,40.2-53.4,44.4-86.4c8.4-61.2-18-97.8-56.4-142.8
	c-40.2-42.6-48-79.2-40.8-130.2C45.3,46.8,75.3,0,147.9,0z"/>
</svg>
