<?xml version="1.0" encoding="utf-8"?>
<!-- Generator: Adobe Illustrator 24.1.0, SVG Export Plug-In . SVG Version: 6.00 Build 0)  -->
<svg version="1.1" id="Layer_1" xmlns="http://www.w3.org/2000/svg" xmlns:xlink="http://www.w3.org/1999/xlink" x="0px" y="0px"
	 viewBox="0 0 58.8 144.8" style="enable-background:new 0 0 58.8 144.8;" xml:space="preserve">
<style type="text/css">
	.st0{fill:none;}
</style>
<path id="Layer_2_1_" class="st0" d="M176.4,277.8v79.8c0,42.3-34.5,76.8-76.8,76.8H76.8C34.5,434.4,0,400.5,0,358.2
	c0-0.3,0-0.3,0-0.6V324l60-19.8v53.4c0,10.5,8.7,19.2,19.2,19.2h18c10.5-0.3,18.9-8.7,19.2-19.2V267c0-22.2-5.4-31.2-25.8-41.4
	l-42-21c-29.4-15.3-48-45.6-48-78.6V76.8C0.6,34.5,35.1,0,77.4,0h20.4c42.3,0,76.8,34.5,76.8,76.8v34.8l-60,19.8V76.8
	c-0.3-10.5-8.7-18.9-19.2-19.2H79.8c-10.5,0.3-18.9,8.7-19.2,19.2v39.6c0,27,4.2,30.6,22.8,39.6l45,22.2
	C176.4,202.2,176.4,243,176.4,277.8z"/>
</svg>
