<?xml version="1.0" encoding="utf-8"?>
<!-- Generator: Adobe Illustrator 24.1.0, SVG Export Plug-In . SVG Version: 6.00 Build 0)  -->
<svg version="1.1" id="Layer_1" xmlns="http://www.w3.org/2000/svg" xmlns:xlink="http://www.w3.org/1999/xlink" x="0px" y="0px"
	 viewBox="0 0 126.6 152" style="enable-background:new 0 0 126.6 152;" xml:space="preserve">
<style type="text/css">
	.st0{fill:none;}
</style>
<path id="Layer_2_1_" class="st0" d="M379.8,52.2v353.4c0,33.6-13.8,50.4-42,50.4c-28.2,0-42-16.8-42-50.4v-88.8H186.6v63
	c0,54-21,76.2-76.2,76.2s-76.2-22.2-76.2-76.2V148.2c0-19.8-4.8-30-18.6-37.2C4.2,105,0,97.8,0,88.2C0,43.2,85.8,0,135,0
	c36,0,51.6,22.8,51.6,69.6v175.2h109.2V102c0-22.2-3-29.4-11.4-34.8c-7.2-4.2-11.7-12-12-20.4c0-27.6,52.8-46.8,76.2-46.8
	C370.8,0,379.8,17.4,379.8,52.2z"/>
</svg>
