<?xml version="1.0" encoding="utf-8"?>
<!-- Generator: Adobe Illustrator 24.1.0, SVG Export Plug-In . SVG Version: 6.00 Build 0)  -->
<svg version="1.1" id="Layer_1" xmlns="http://www.w3.org/2000/svg" xmlns:xlink="http://www.w3.org/1999/xlink" x="0px" y="0px"
	 viewBox="0 0 148.8 149.6" style="enable-background:new 0 0 148.8 149.6;" xml:space="preserve">
<style type="text/css">
	.st0{fill:none;}
</style>
<path id="Layer_2_1_" class="st0" d="M411,15.3c-25.2,0-38.1,8.4-38.1,25.2v333c0,17.1,12.6,25.2,38.1,25.2v9.6H258.9v-9.6
	c25.2,0,38.1-8.4,38.1-25.2V203.7H114v169.8c0,17.1,12.6,25.2,38.1,25.2v9.6H0v-9.6c25.2,0,38.1-8.4,38.1-25.2v-333
	c0-17.1-12.6-25.2-38.1-25.2V5.7h152.1v9.6c-25.2,0-38.1,8.4-38.1,25.2v143.4h183V40.8c0-17.1-12.6-25.2-38.1-25.2V5.7H411V15.3z"/>
</svg>
