<?xml version="1.0" encoding="utf-8"?>
<!-- Generator: Adobe Illustrator 24.1.0, SVG Export Plug-In . SVG Version: 6.00 Build 0)  -->
<svg version="1.1" id="Layer_1" xmlns="http://www.w3.org/2000/svg" xmlns:xlink="http://www.w3.org/1999/xlink" x="0px" y="0px"
	 viewBox="0 0 131.2 149.6" style="enable-background:new 0 0 131.2 149.6;" xml:space="preserve">
<style type="text/css">
	.st0{fill:none;}
</style>
<path id="Layer_2_1_" class="st0" d="M0,402.7c25.5,0,38.4-8.4,38.4-25.5V39.4C38.4,22,25.5,13.6,0,13.6V3.7h342.3v97.8H333
	c0.3-12.3-0.9-24.6-3-36.3c-1.8-9-5.7-17.4-11.7-24.3c-6-6.6-13.8-11.1-22.5-13.5c-11.4-3-23.4-4.2-35.1-3.9H115.5v149.7H219
	c8.4,0.3,16.5-3,22.5-9.3c6-6,9-15.9,9-29.1H261v97.5h-10.5c0-12.9-3-23.1-9-29.4c-5.7-6.6-13.8-9.9-22.5-9.6H115.5v199.8h156.6
	c11.7,0.3,23.7-1.2,35.1-3.9c8.4-2.1,16.5-6.9,22.5-13.5c5.7-6.9,9.9-15.3,11.7-24.3c2.1-12,3.6-24.3,3-36.3h9.3v97.5H0V402.7z"/>
</svg>
