<?xml version="1.0" encoding="utf-8"?>
<!-- Generator: Adobe Illustrator 24.1.0, SVG Export Plug-In . SVG Version: 6.00 Build 0)  -->
<svg version="1.1" id="Layer_1" xmlns="http://www.w3.org/2000/svg" xmlns:xlink="http://www.w3.org/1999/xlink" x="0px" y="0px"
	 viewBox="0 0 37.8 136" style="enable-background:new 0 0 37.8 136;" xml:space="preserve">
<style type="text/css">
	.st0{fill:none;}
</style>
<path class="st0" d="M149.7,138.5c15.9-17.1,24.9-39.9,24.3-63.3V4.1c0-47.7-33.9-88.5-86.4-88.5H0v42.9h87.6c0.9,0,1.2,0,1.8,0
	c22.8,0.6,41.4,19.5,40.8,42.9v76.8c0,0,0,0.3,0,0.9c0,23.1-18.9,41.7-41.7,41.7H44.7V-41.3H0v618.1h44.7V163.4h52.8
	c0.9,0,1.2,0,1.8,0c22.8,0.6,41.4,19.5,40.8,42.9v370.5h43.5V209.6C184.2,181.7,171.6,155.6,149.7,138.5z"/>
</svg>
