<?xml version="1.0" encoding="utf-8"?>
<!-- Generator: Adobe Illustrator 24.1.0, SVG Export Plug-In . SVG Version: 6.00 Build 0)  -->
<svg version="1.1" id="Layer_1" xmlns="http://www.w3.org/2000/svg" xmlns:xlink="http://www.w3.org/1999/xlink" x="0px" y="0px"
	 viewBox="0 0 58.8 142.4" style="enable-background:new 0 0 58.8 142.4;" xml:space="preserve">
<style type="text/css">
	.st0{fill:#231F20;}
</style>
<path class="st0" d="M241.2,531.8H159l-50.1-174h-27v174H0v-505h23.1V509h36V335h67.2l50.1,174h34.5L159,329.9
	c36.9-24.6,50.1-50.1,50.1-77.1V52.7c0-45-35.4-79.5-81.3-81.9H23.1v55.8H0v-78.9h128.1c56.7,0,104.1,47.7,104.1,105v200.1
	c0,36-18.9,68.1-45.9,87L241.2,531.8z"/>
<path class="st0" d="M59.1,26.8h23.1v252.4h34.5c23.1,0,34.5-11.4,34.5-34.5V60.8c0-23.1-11.4-34.5-34.5-34.5H59.1V3.5h57.3
	c32.1,0,56.7,22.2,56.7,57.3v183.9c0,32.7-22.2,57.3-56.7,57.3H59.1V26.8z"/>
</svg>
