<?xml version="1.0" encoding="utf-8"?>
<!-- Generator: Adobe Illustrator 24.1.0, SVG Export Plug-In . SVG Version: 6.00 Build 0)  -->
<svg version="1.1" id="Layer_1" xmlns="http://www.w3.org/2000/svg" xmlns:xlink="http://www.w3.org/1999/xlink" x="0px" y="0px"
	 viewBox="0 0 77.8 161.2" style="enable-background:new 0 0 77.8 161.2;" xml:space="preserve">
<style type="text/css">
	.st0{fill:none;}
</style>
<path id="Layer_2_1_" class="st0" d="M220.8,333c3.6-73.2-5.4-135.6-56.4-149.4c36.6-10.8,59.4-47.4,59.4-94.8S189,0,137.4,0
	c-28.2,0-48,12.6-61.2,35.4H75V3.6H0v165.6h76.8V144c0-36.6,6.6-91.2,32.4-109.8c19.8,9,33.6,28.2,33.6,61.8c0,42-22.2,75-66,80.4
	v-6.6H0v313.8h76.8v-291c64.8,15,69.6,53.4,66,140.4c-2.4,63,0.6,105,12.6,150.6h78C219.6,419.4,218.4,379.8,220.8,333z"/>
</svg>
