<?xml version="1.0" encoding="utf-8"?>
<!-- Generator: Adobe Illustrator 24.1.0, SVG Export Plug-In . SVG Version: 6.00 Build 0)  -->
<svg version="1.1" id="Layer_1" xmlns="http://www.w3.org/2000/svg" xmlns:xlink="http://www.w3.org/1999/xlink" x="0px" y="0px"
	 viewBox="0 0 153.2 150" style="enable-background:new 0 0 153.2 150;" xml:space="preserve">
<style type="text/css">
	.st0{fill:none;}
</style>
<path id="Layer_2_1_" class="st0" d="M381.6,399.4c7.2-2.7,13.8-6.6,19.5-11.4l-9.9-9.9c-3.3,2.7-6.6,5.1-10.5,6.3
	c-5.1,2.4-10.8,3.3-16.8,3.3c-9.3,0-16.2-2.4-21.6-7.8c-5.7-6-9.9-12.6-12.3-20.4c-3.3-9.6-6-19.5-6.9-29.4
	c-1.5-11.4-3.3-23.1-5.1-35.1c-2.1-11.4-4.2-23.1-7.2-35.4c-2.7-12-7.2-23.4-13.2-34.5c-6-10.8-13.2-20.7-22.2-29.1
	c-9.9-8.7-21.9-15.6-34.5-19.5c16.8-4.8,32.1-14.4,42.9-27.9s16.8-30.3,16.8-47.7c0-12.6-2.4-25.2-8.1-36.6
	c-5.1-10.8-12.6-20.4-21.9-28.2c-9.6-7.8-20.4-14.1-31.5-18.3c-11.7-4.5-24-6.6-36.6-6.6H0v9.6c24.3,0,36.6,8.1,36.6,24.3V168h72.9
	V31h55.8c8.7,0,16.8,1.5,24.9,3.9c7.5,2.4,14.4,6.6,20.4,12.3c6,6,10.5,13.5,13.2,21.9c3.3,10.5,5.1,21.9,4.8,33
	c0.3,11.1-1.5,22.2-4.8,33c-2.7,8.4-7.2,15.9-13.2,21.9c-6,5.7-12.6,9.6-20.4,12.3c-8.1,2.4-16.2,3.9-24.9,3.9h-55.8v-5.1H36.6
	v197.7c0,16.2-12.3,24.3-36.6,24.3v9.6h145.8v-9.6c-24.3,0-36.6-8.1-36.6-24.3V190.3h57.3c16.8,0,30.3,3.3,39.9,9.3
	s17.1,14.1,22.2,24c5.7,10.8,9.6,22.2,11.7,34.2c2.4,13.2,4.8,25.8,6.6,39.3c2.1,13.2,4.8,26.4,8.1,39.3c3.3,12.3,8.4,24,15.6,34.2
	c7.5,10.2,17.4,18.6,29.1,24c12.3,6,28.8,9.3,49.5,9.3C363.6,403.6,374.4,402.1,381.6,399.4z"/>
</svg>
