<?xml version="1.0" encoding="utf-8"?>
<!-- Generator: Adobe Illustrator 24.1.0, SVG Export Plug-In . SVG Version: 6.00 Build 0)  -->
<svg version="1.1" id="Layer_1" xmlns="http://www.w3.org/2000/svg" xmlns:xlink="http://www.w3.org/1999/xlink" x="0px" y="0px"
	 viewBox="0 0 93.3 162" style="enable-background:new 0 0 93.3 162;" xml:space="preserve">
<style type="text/css">
	.st0{fill:none;}
</style>
<path id="Layer_2_1_" class="st0" d="M279.6,94.8C284.4,36,245.4,0,187.2,0l-44.4,19.2L144,6H67.2L51.9,116.4h78.3L141.6,33
	c37.8,4.8,59.4,27.6,57,65.4c-2.4,42-31.8,75-77.4,80.4l8.7-61.8H51.6L0,486h78l40.8-291c62.4,15.6,58.2,53.4,46.2,140.4
	C151.2,436.2,146.4,486,212.4,486h65.4v-9c-58.2,0-45.6-68.4-34.8-141.6c13.2-90,13.8-138.6-33-150
	C247.8,174.6,276,139.2,279.6,94.8z"/>
</svg>
