<?xml version="1.0" encoding="utf-8"?>
<!-- Generator: Adobe Illustrator 24.1.0, SVG Export Plug-In . SVG Version: 6.00 Build 0)  -->
<svg version="1.1" id="Layer_1" xmlns="http://www.w3.org/2000/svg" xmlns:xlink="http://www.w3.org/1999/xlink" x="0px" y="0px"
	 viewBox="0 0 58.8 143.6" style="enable-background:new 0 0 58.8 143.6;" xml:space="preserve">
<style type="text/css">
	.st0{fill:none;}
</style>
<path id="Layer_2_1_" class="st0" d="M174-71.2v529.5c-0.3,15.6-12.9,28.2-28.8,28.8h-27c-15.6-0.3-28.2-12.9-28.8-28.8V-71.2H0
	v86.1h25.2V-46h39.6v504.6c0.9,29.7,24.3,53.1,54,54h27c29.7-0.3,53.4-24.3,54-54V-46.3h39.6v504.6c0,49.5-40.5,89.7-89.7,89.7
	h-34.8c-49.5,0-89.7-40.5-89.7-89.7V15.8H0v442.5c0,63.3,50.7,114.9,114,114.9c0.3,0,0.3,0,0.9,0h34.2
	c63.3,0,114.9-51.6,114.9-114.9V-71.2H174z"/>
</svg>
