<?xml version="1.0" encoding="utf-8"?>
<!-- Generator: Adobe Illustrator 24.1.0, SVG Export Plug-In . SVG Version: 6.00 Build 0)  -->
<svg version="1.1" id="Layer_1" xmlns="http://www.w3.org/2000/svg" xmlns:xlink="http://www.w3.org/1999/xlink" x="0px" y="0px"
	 viewBox="0 0 110.8 143" style="enable-background:new 0 0 110.8 143;" xml:space="preserve">
<style type="text/css">
	.st0{fill:none;}
</style>
<path id="Layer_2_1_" class="st0" d="M332.4,24.6l-1.2,355.8c0,23.4-8.4,39.6-36,39.6s-28.8-16.8-28.8-40.2V345
	c-8.4,40.2-46.8,84-121.2,84c-79.8,0-117-50.4-115.8-129l-0.6-161.4C28.8,111,0,115.2,0,94.2C0,62.4,75.6,0,133.2,0
	C162.6,0,177,16.2,177,55.8l3,229.2c0,31.8,15.6,55.2,37.2,55.2c26.4,0,42-33.6,42-79.8v-168c0-15-24-18.6-24-37.8
	c0-25.2,45.6-54.6,72.6-54.6C323.4,0,331.2,9.6,332.4,24.6z"/>
</svg>
