<?xml version="1.0" encoding="utf-8"?>
<!-- Generator: Adobe Illustrator 24.1.0, SVG Export Plug-In . SVG Version: 6.00 Build 0)  -->
<svg version="1.1" id="Layer_1" xmlns="http://www.w3.org/2000/svg" xmlns:xlink="http://www.w3.org/1999/xlink" x="0px" y="0px"
	 viewBox="0 0 138.8 150" style="enable-background:new 0 0 138.8 150;" xml:space="preserve">
<style type="text/css">
	.st0{fill:none;}
</style>
<path id="Layer_2_1_" class="st0" d="M376.2,281.4c0,50.1-14.4,86.7-43.2,109.8c-28.8,23.1-70.5,34.8-124.8,34.8
	s-96-11.7-125.1-34.8C54,368.1,39.6,331.5,39.6,281.4V36.6c0-17.7-13.2-26.4-39.6-26.4V0h158.4v10.2c-26.4,0-39.6,8.7-39.6,26.4V294
	c-0.3,15.3,2.7,30.3,8.7,44.4c5.7,12.9,14.1,24.6,24.6,34.2c10.8,9.9,23.7,17.4,37.5,22.2c15,5.4,30.9,7.8,46.8,7.8
	c16.2,0.3,32.1-2.4,47.4-7.8c13.8-4.8,26.4-12.3,37.2-22.2c21.9-20.1,34.2-48.9,33.6-78.6V43.2c0.3-8.7-3.3-17.1-9.6-23.1
	c-6.3-6.3-16.5-9.3-30-9.3V0h101.1v10.8c-13.5,0-23.7,3-30.3,9.3c-6.6,6-10.2,14.4-9.9,23.1L376.2,281.4z"/>
</svg>
