<?xml version="1.0" encoding="utf-8"?>
<!-- Generator: Adobe Illustrator 24.1.0, SVG Export Plug-In . SVG Version: 6.00 Build 0)  -->
<svg version="1.1" id="Layer_1" xmlns="http://www.w3.org/2000/svg" xmlns:xlink="http://www.w3.org/1999/xlink" x="0px" y="0px"
	 viewBox="0 0 230 115" style="enable-background:new 0 0 230 115;" xml:space="preserve">
<style type="text/css">
	.st0{fill:#FFFFFF;}
</style>
<g id="Layer_2_2_">
	<g id="type_1_">
		<rect x="-303.8" class="st0" width="230" height="115"/>
		<path d="M-242.6,17l3.9,12.6h-1.9l-0.9-3.1h-5l-0.9,3.1h-1.9l3.9-12.6H-242.6z M-242,24.9l-1.9-6.4h-0.2l-1.9,6.4L-242,24.9z"/>
		<path d="M-228,20.5c2.1-0.1,3.9,1.3,4.3,3.4l-1.7,0.4c-0.1-1.3-1.3-2.3-2.6-2.3c-1.6,0-2.9,1.4-2.9,3c0,0.1,0,0.1,0,0.2
			c-0.1,1.6,1.1,3,2.7,3.1c0.1,0,0.2,0,0.2,0c1.3,0.1,2.5-0.9,2.6-2.3l1.7,0.4c-0.4,2.1-2.2,3.5-4.3,3.4c-2.5,0-4.6-2-4.6-4.4
			c0-0.1,0-0.1,0-0.2c-0.1-2.5,1.9-4.6,4.4-4.7C-228.1,20.5-228.1,20.5-228,20.5z"/>
		<path d="M-217.8,20.5c2.5-0.1,4.5,1.9,4.6,4.3c0,0.1,0,0.2,0,0.3c0.1,2.5-1.8,4.7-4.4,4.8s-4.7-1.8-4.8-4.4c0-0.1,0-0.3,0-0.4
			c-0.1-2.5,1.8-4.5,4.2-4.7C-218.1,20.5-218,20.5-217.8,20.5z M-217.8,28.3c1.6,0,2.9-1.3,2.9-2.8c0-0.1,0-0.2,0-0.3
			c0.2-1.6-1-3-2.6-3.2c-1.6-0.2-3,1-3.2,2.6c0,0.2,0,0.4,0,0.6c-0.2,1.6,1,3,2.5,3.1C-218.1,28.3-218,28.3-217.8,28.3z"/>
		<path d="M-209.8,29.6h-1.7V17h1.7V29.6z"/>
		<path d="M-205.6,29.6h-1.7V17h1.7V29.6z"/>
		<path d="M-199.4,20.5c2.3-0.1,4.2,1.6,4.3,3.9c0,0.2,0,0.3,0,0.5v0.8h-6.9c0.1,1.5,1.4,2.7,3,2.6c1-0.1,1.9-0.7,2.4-1.6l1.4,0.8
			c-0.7,1.5-2.3,2.4-4,2.3c-2.5,0.1-4.5-1.9-4.6-4.4c0-0.1,0-0.2,0-0.3c-0.1-2.4,1.7-4.5,4.1-4.6C-199.6,20.5-199.5,20.5-199.4,20.5
			z M-196.8,24.3c0-1.3-1.1-2.3-2.4-2.3c-0.1,0-0.1,0-0.2,0c-1.4-0.1-2.6,1-2.7,2.3c0,0,0,0,0,0L-196.8,24.3z"/>
		<path d="M-189.3,20.5c2.1-0.1,3.9,1.3,4.3,3.4l-1.6,0.4c-0.1-1.3-1.3-2.3-2.6-2.3c-1.6,0-2.9,1.3-2.9,3c0,0.1,0,0.1,0,0.2
			c-0.1,1.6,1.1,3,2.7,3.1c0.1,0,0.2,0,0.2,0c1.3,0.1,2.5-0.9,2.6-2.3l1.7,0.4c-0.4,2.1-2.2,3.5-4.3,3.4c-2.5,0-4.5-2-4.6-4.5
			c0-0.1,0-0.1,0-0.2c-0.1-2.5,1.9-4.6,4.4-4.7C-189.4,20.5-189.4,20.5-189.3,20.5z"/>
		<path d="M-181.7,20.7v-3h1.7v3h2.7v1.4h-2.7v5.4c0,0.4,0.2,0.5,0.5,0.5h1.7v1.4h-2.4c-0.8,0-1.5-0.6-1.5-1.3c0,0,0-0.1,0-0.1v-5.9
			h-2.6v-1.4H-181.7z"/>
		<path d="M-174.7,16.8c0.7,0,1.3,0.6,1.3,1.3c0,0.7-0.6,1.3-1.3,1.3c-0.7,0-1.3-0.6-1.3-1.3C-176,17.4-175.4,16.8-174.7,16.8
			C-174.7,16.8-174.7,16.8-174.7,16.8z M-173.8,29.6h-1.7v-8.8h1.7V29.6z"/>
		<path d="M-167.4,20.5c2.5-0.1,4.5,1.9,4.6,4.3c0,0.1,0,0.2,0,0.4c0.1,2.5-1.8,4.7-4.4,4.8c-2.5,0.1-4.7-1.8-4.8-4.4
			c0-0.1,0-0.3,0-0.4c-0.1-2.5,1.8-4.5,4.2-4.7C-167.6,20.5-167.5,20.5-167.4,20.5z M-167.4,28.3c1.6,0,2.9-1.2,2.9-2.8
			c0-0.1,0-0.2,0-0.3c0.1-1.6-1-3-2.6-3.1c-1.6-0.1-3,1-3.1,2.6c0,0.2,0,0.3,0,0.5c-0.2,1.6,1,3,2.5,3.1
			C-167.6,28.3-167.5,28.3-167.4,28.3z"/>
		<path d="M-159.3,20.7v1.5h0.2c0.6-1.1,1.7-1.8,3-1.7c1.9-0.1,3.4,1.4,3.5,3.3c0,0.1,0,0.3,0,0.4v5.3h-1.7v-5.2
			c0.1-1.2-0.7-2.2-1.9-2.3c-0.2,0-0.3,0-0.5,0c-1.6,0-2.7,1-2.7,3v4.5h-1.7v-8.8H-159.3z"/>
		<path d="M-141,20.5c2.5-0.1,4.5,1.9,4.6,4.3c0,0.1,0,0.2,0,0.3c0.1,2.5-1.8,4.7-4.4,4.8c-2.5,0.1-4.7-1.8-4.8-4.4
			c0-0.1,0-0.3,0-0.4c-0.1-2.5,1.8-4.5,4.2-4.7C-141.2,20.5-141.1,20.5-141,20.5z M-141,28.3c1.6,0,2.9-1.2,2.9-2.8
			c0-0.1,0-0.2,0-0.3c0.1-1.6-1-3-2.6-3.1c-1.6-0.1-3,1-3.1,2.6c0,0.2,0,0.3,0,0.5c-0.2,1.6,1,3,2.5,3.1
			C-141.2,28.3-141.1,28.3-141,28.3z"/>
		<path d="M-132.9,20.7v-2.2c0-0.8,0.6-1.5,1.4-1.5c0,0,0.1,0,0.1,0h2.3v1.4h-1.7c-0.3,0-0.5,0.2-0.5,0.5v1.8h2.6v1.4h-2.6v7.4h-1.7
			v-7.4h-2.6v-1.5H-132.9z"/>
		<path d="M-282.6,42.1c2.6,0.1,4.6,2.3,4.5,4.9c-0.1,2.4-2,4.3-4.5,4.5c-2.4,0.1-4.5-1.9-4.6-4.3c0-0.1,0-0.2,0-0.4
			c-0.1-2.5,1.8-4.5,4.2-4.7C-282.8,42.1-282.7,42.1-282.6,42.1z M-282.6,49.9c1.6,0,2.9-1.2,2.9-2.8c0-0.1,0-0.2,0-0.3
			c0.1-1.6-1-3-2.6-3.1s-3,1-3.1,2.6c0,0.2,0,0.3,0,0.5c-0.2,1.6,1,3,2.5,3.1C-282.8,49.9-282.7,49.9-282.6,49.9z"/>
		<path d="M-276.2,42.3h1.6v1.4h0.2c0.6-1.1,1.8-1.8,3.1-1.7c2.3,0,4.2,1.9,4.2,4.7s-1.8,4.7-4.2,4.7c-1.3,0.1-2.5-0.6-3.1-1.7h-0.2
			v5h-1.7V42.3z M-268.7,46.8c0.2-1.6-0.9-3-2.5-3.2c-0.1,0-0.2,0-0.3,0c-1.6,0-2.9,1.3-2.9,2.9c0,0.1,0,0.2,0,0.3
			c-0.2,1.6,1,3,2.6,3.1c0.1,0,0.2,0,0.3,0c1.6,0,2.9-1.2,2.9-2.8C-268.7,47-268.7,46.9-268.7,46.8z"/>
		<path d="M-261.3,42.1c2.3-0.1,4.2,1.6,4.3,3.9c0,0.2,0,0.3,0,0.5v0.8h-6.9c0.1,1.5,1.4,2.7,3,2.7c1-0.1,2-0.7,2.4-1.6l1.4,0.8
			c-0.7,1.5-2.3,2.4-4,2.3c-2.5,0-4.5-1.9-4.5-4.4c0-0.1,0-0.2,0-0.3c-0.1-2.4,1.7-4.5,4.1-4.6C-261.5,42.1-261.4,42.1-261.3,42.1z
			 M-258.8,45.9c0-1.3-1-2.4-2.3-2.4c-0.1,0-0.1,0-0.2,0c-1.4-0.1-2.6,1-2.7,2.3c0,0,0,0,0,0H-258.8z"/>
		<path d="M-253.6,42.3v1.5h0.2c0.5-1.1,1.7-1.8,3-1.7c1.9-0.1,3.4,1.4,3.5,3.3c0,0.1,0,0.3,0,0.4v5.3h-1.7V46
			c0.1-1.2-0.7-2.2-1.9-2.3c-0.2,0-0.3,0-0.5,0c-1.6,0-2.7,1-2.7,3v4.5h-1.7v-8.8H-253.6z"/>
		<path d="M-244.3,45.8h5.3v1.5h-5.3V45.8z"/>
		<path d="M-233.2,42.1c1.7,0,3.3,0.7,4.4,2.1l-1.2,1c-0.7-1-1.9-1.7-3.2-1.7c-1.1,0-1.8,0.4-1.8,1.2s0.7,1,1.7,1.2l1.1,0.2
			c1.9,0.3,3.3,0.9,3.3,2.6s-1.6,2.8-3.6,2.8c-2,0.1-3.8-1-4.8-2.7l1.3-0.8c0.6,1.3,1.9,2.1,3.4,2.1c1.2,0,2-0.5,2-1.3
			s-0.7-1.1-1.8-1.3l-1.1-0.2c-2-0.3-3.2-1.1-3.2-2.6S-235.2,42.1-233.2,42.1z"/>
		<path d="M-222.9,42.1c2.6-0.1,4.7,2,4.8,4.6c0.1,2.6-2,4.7-4.6,4.8s-4.7-2-4.8-4.6c0,0,0-0.1,0-0.1c-0.1-2.5,1.8-4.5,4.2-4.7
			C-223.2,42.1-223,42.1-222.9,42.1z M-222.9,49.9c1.6,0,2.9-1.3,2.9-2.8c0-0.1,0-0.2,0-0.3c0.1-1.6-1-3-2.6-3.1
			c-1.6-0.1-3,1-3.1,2.6c0,0.2,0,0.3,0,0.5c-0.2,1.6,1,3,2.5,3.1C-223.2,49.9-223,49.9-222.9,49.9z"/>
		<path d="M-209.8,51.2v-1.5h-0.2c-0.5,1.1-1.7,1.8-3,1.7c-1.9,0.1-3.4-1.4-3.5-3.3c0-0.1,0-0.3,0-0.4v-5.3h1.7v5.2
			c-0.1,1.2,0.7,2.2,1.9,2.3c0.2,0,0.3,0,0.5,0c1.6,0,2.7-1,2.7-3v-4.5h1.7v8.8L-209.8,51.2z"/>
		<path d="M-204.2,43.5h0.2c0.3-0.9,1-1.2,2.2-1.2h1v1.5h-1.4c-1-0.1-2,0.7-2.1,1.7c0,0.1,0,0.3,0,0.4v5.3h-1.7v-8.8h1.7
			L-204.2,43.5z"/>
		<path d="M-195.5,42.1c2.1-0.1,3.9,1.3,4.3,3.4l-1.7,0.4c-0.1-1.3-1.3-2.3-2.6-2.3c-1.6,0-2.9,1.3-2.9,3c0,0.1,0,0.1,0,0.2
			c-0.1,1.6,1.1,3,2.7,3.1c0.1,0,0.2,0,0.2,0c1.4,0.1,2.6-0.9,2.7-2.3l1.7,0.4c-0.4,2.1-2.2,3.5-4.3,3.4c-2.6-0.1-4.6-2.3-4.5-4.9
			C-199.9,44.1-197.9,42.2-195.5,42.1L-195.5,42.1z"/>
		<path d="M-185.5,42.1c2.3-0.1,4.2,1.6,4.3,3.9c0,0.2,0,0.3,0,0.5v0.8h-6.9c0.1,1.6,1.4,2.8,2.9,2.7c1.1,0,2-0.7,2.5-1.7l1.4,0.8
			c-0.7,1.5-2.3,2.4-4,2.3c-2.5,0-4.5-1.9-4.6-4.4c0-0.1,0-0.2,0-0.3c-0.1-2.4,1.7-4.5,4.1-4.6C-185.7,42.1-185.6,42.1-185.5,42.1z
			 M-183,45.9c0-1.3-1-2.4-2.3-2.4c-0.1,0-0.1,0-0.2,0c-1.4-0.1-2.6,1-2.7,2.3c0,0,0,0,0,0H-183z"/>
		<path d="M-172.7,42.3v-3h1.7v3h2.7v1.4h-2.7v5.4c0,0.4,0.2,0.5,0.5,0.5h1.7v1.4h-2.4c-0.8,0-1.5-0.6-1.5-1.3c0,0,0-0.1,0-0.1v-5.9
			h-2.6v-1.4H-172.7z"/>
		<path d="M-158,42.3l-5.1,12.4h-1.8l1.4-3.2l-3.8-9.2h1.8l2.7,6.9h0.2l2.7-6.9L-158,42.3z"/>
		<path d="M-156.6,42.3h1.7v1.4h0.2c0.6-1.1,1.8-1.8,3.1-1.7c2.3,0,4.2,1.9,4.2,4.7s-1.9,4.7-4.2,4.7c-1.3,0.1-2.5-0.6-3.1-1.7h-0.2
			v5h-1.7L-156.6,42.3z M-149.1,46.8c0.2-1.6-1-3-2.5-3.2c-0.1,0-0.2,0-0.3,0c-1.6,0-2.9,1.3-2.9,2.9c0,0.1,0,0.2,0,0.3
			c-0.2,1.6,1,3,2.6,3.1c0.1,0,0.2,0,0.3,0c1.6,0,2.9-1.2,2.9-2.8C-149.1,47-149.1,46.9-149.1,46.8L-149.1,46.8z"/>
		<path d="M-141.7,42.1c2.3-0.1,4.2,1.6,4.3,3.9c0,0.2,0,0.3,0,0.5v0.8h-6.9c0,1.5,1.2,2.7,2.6,2.7c0.1,0,0.1,0,0.2,0
			c1.1,0.1,2.1-0.6,2.6-1.6l1.4,0.8c-0.7,1.5-2.3,2.4-4,2.3c-2.5,0-4.5-1.9-4.6-4.4c0-0.1,0-0.2,0-0.4c-0.1-2.4,1.7-4.5,4.1-4.6
			C-141.9,42.1-141.8,42.1-141.7,42.1z M-139.2,45.9c0-1.3-1-2.4-2.3-2.4c-0.1,0-0.1,0-0.2,0c-1.4-0.1-2.6,1-2.7,2.4H-139.2z"/>
		<path d="M-134,42.3v-2.2c-0.1-0.8,0.6-1.5,1.4-1.6c0,0,0.1,0,0.1,0h2.3V40h-1.7c-0.3,0-0.5,0.2-0.5,0.5v1.8h2.6v1.4h-2.6v7.4h-1.7
			v-7.4h-2.6v-1.5H-134z"/>
		<path d="M-124.1,42.1c2.4,0,3.9,1.4,3.9,3.5v5.6h-1.6v-1.4h-0.2c-0.6,1.1-1.9,1.8-3.2,1.6c-2,0-3.3-1-3.3-2.7s1.2-2.5,3-2.6
			l3.7-0.4v-0.3c0-1.1-0.9-2-2-2c-0.1,0-0.2,0-0.2,0c-1.3,0-2.4,0.8-2.8,2l-1.4-0.8C-127.6,43.1-125.9,42.1-124.1,42.1z M-125,50
			c1.5,0.2,2.8-0.9,3-2.4c0-0.1,0-0.2,0-0.3v-0.1l-3.3,0.3c-1,0.1-1.6,0.5-1.6,1.3S-126.2,50-125,50z"/>
		<path d="M-114,42.1c2.1-0.1,3.9,1.3,4.3,3.4l-1.6,0.4c-0.1-1.3-1.3-2.3-2.6-2.3c-1.6,0-2.9,1.3-2.9,3c0,0.1,0,0.1,0,0.2
			c-0.1,1.6,1,3,2.6,3.1c0.1,0,0.2,0,0.3,0c1.3,0.1,2.5-0.9,2.6-2.3l1.7,0.4c-0.4,2.1-2.2,3.5-4.3,3.4c-2.6-0.1-4.6-2.3-4.5-4.9
			C-118.3,44.1-116.4,42.2-114,42.1z"/>
		<path d="M-104,42.1c2.3-0.1,4.2,1.6,4.3,3.9c0,0.2,0,0.3,0,0.5v0.8h-6.9c0,1.5,1.2,2.7,2.6,2.7c0.1,0,0.1,0,0.2,0
			c1.1,0.1,2.1-0.6,2.6-1.6l1.4,0.8c-0.7,1.5-2.3,2.4-4,2.3c-2.5,0-4.5-1.9-4.6-4.4c0-0.1,0-0.2,0-0.4c-0.1-2.4,1.7-4.5,4.1-4.6
			C-104.2,42.1-104.1,42.1-104,42.1z M-101.4,45.9c0-1.3-1-2.4-2.3-2.4c-0.1,0-0.1,0-0.2,0c-1.4-0.1-2.6,1-2.7,2.4H-101.4z"/>
		<path d="M-94.9,42.1c1.7,0,3.3,0.7,4.4,2.1l-1.2,1c-0.7-1-1.9-1.6-3.1-1.7c-1.1,0-1.8,0.4-1.8,1.2s0.7,1,1.7,1.2l1,0.1
			c1.9,0.3,3.3,0.9,3.3,2.6s-1.6,2.8-3.6,2.8c-1.9,0.1-3.8-0.9-4.7-2.6l1.4-0.8c0.6,1.3,1.9,2.1,3.4,2.1c1.2,0,2-0.5,2-1.3
			s-0.7-1.1-1.8-1.3l-1.1-0.2c-2-0.3-3.2-1.1-3.2-2.6S-96.9,42.1-94.9,42.1z"/>
		<path d="M-284.4,60c0.7,0,1.3,0.6,1.3,1.3c0,0.7-0.6,1.3-1.3,1.3c-0.7,0-1.3-0.6-1.3-1.3C-285.7,60.6-285.2,60-284.4,60
			C-284.4,60-284.4,60-284.4,60z M-283.5,72.8h-1.7v-8.9h1.7V72.8z"/>
		<path d="M-279.5,63.9v1.5h0.2c0.6-1.1,1.7-1.8,3-1.7c1.9-0.1,3.4,1.4,3.5,3.3c0,0.1,0,0.3,0,0.4v5.3h-1.7v-5.2
			c0.1-1.2-0.7-2.2-1.9-2.3c-0.2,0-0.3,0-0.5,0c-1.6,0-2.7,1-2.7,3v4.5h-1.7v-8.8H-279.5z"/>
		<path d="M-267.4,63.7c1.7,0,3.3,0.7,4.4,2.1l-1.2,1c-0.7-1-1.9-1.6-3.2-1.7c-1.1,0-1.7,0.4-1.7,1.2s0.7,1,1.7,1.2l1.1,0.2
			c1.9,0.3,3.3,0.9,3.3,2.6s-1.6,2.7-3.6,2.7c-2,0.1-3.8-1-4.8-2.7l1.4-0.8c0.6,1.3,1.9,2.1,3.4,2.1c1.2,0,2-0.5,2-1.3
			s-0.7-1.1-1.8-1.3l-1.1-0.2c-2-0.3-3.2-1.1-3.2-2.6S-269.4,63.7-267.4,63.7z"/>
		<path d="M-261.1,63.9h1.6v1.4h0.2c0.6-1.1,1.8-1.8,3.1-1.7c2.3,0,4.2,1.9,4.2,4.7s-1.8,4.6-4.2,4.6c-1.3,0.1-2.5-0.6-3.1-1.7h-0.2
			v5h-1.7V63.9z M-253.6,68.4c0.2-1.6-0.9-3-2.5-3.2c-0.1,0-0.2,0-0.3,0c-1.7,0.1-3,1.7-2.9,3.4c0.1,1.6,1.4,2.8,2.9,2.9
			c1.6,0,2.9-1.2,2.9-2.8C-253.6,68.6-253.6,68.5-253.6,68.4z"/>
		<path d="M-249.2,60c0.7,0,1.3,0.6,1.3,1.3c0,0.7-0.6,1.3-1.3,1.3c-0.7,0-1.3-0.6-1.3-1.3C-250.5,60.6-250,60-249.2,60
			C-249.3,60-249.2,60-249.2,60z M-248.4,72.8h-1.7v-8.9h1.7V72.8z"/>
		<path d="M-244.3,65.2h0.2c0.4-0.9,1-1.2,2.2-1.2h1v1.5h-1.4c-1-0.1-2,0.7-2.1,1.7c0,0.1,0,0.3,0,0.4v5.3h-1.7v-8.8h1.6V65.2z"/>
		<path d="M-235.8,63.7c2.3-0.1,4.2,1.6,4.3,3.9c0,0.2,0,0.3,0,0.5v0.8h-6.9c0.1,1.5,1.4,2.7,3,2.6c1-0.1,1.9-0.7,2.4-1.6l1.4,0.8
			c-0.7,1.5-2.3,2.4-4,2.3c-2.5,0-4.5-1.9-4.6-4.4c0-0.1,0-0.2,0-0.3c-0.1-2.4,1.8-4.5,4.2-4.6C-236,63.7-235.9,63.7-235.8,63.7z
			 M-233.3,67.5c0-1.3-1-2.4-2.3-2.4c-0.1,0-0.1,0-0.2,0c-1.4-0.1-2.6,1-2.7,2.3c0,0,0,0,0,0H-233.3z"/>
		<path d="M-221.2,72.8h-1.7v-1.4h-0.2c-0.6,1.1-1.8,1.8-3.1,1.7c-2.3,0-4.2-1.9-4.2-4.7s1.9-4.7,4.2-4.7c1.3-0.1,2.5,0.6,3.1,1.7
			h0.2v-5.2h1.7L-221.2,72.8z M-228.6,68.3c-0.2,1.6,0.9,3,2.5,3.2c0.1,0,0.2,0,0.4,0c1.7-0.1,3-1.7,2.9-3.4
			c-0.1-1.6-1.4-2.8-2.9-2.9c-1.6,0-2.9,1.2-2.9,2.8C-228.7,68.1-228.7,68.2-228.6,68.3z"/>
		<path d="M-211.8,60.2v5.2h0.2c0.6-1.1,1.8-1.8,3.1-1.7c2.3,0,4.2,1.9,4.2,4.7s-1.9,4.6-4.2,4.6c-1.3,0.1-2.5-0.6-3.1-1.7h-0.3v1.4
			h-1.6V60.2H-211.8z M-211.8,68.4c-0.2,1.6,1,3,2.6,3.1c0.1,0,0.2,0,0.3,0c1.7-0.2,3-1.8,2.8-3.5c-0.2-1.5-1.3-2.6-2.8-2.8
			c-1.6,0-2.9,1.3-2.9,2.8C-211.8,68.2-211.8,68.3-211.8,68.4z"/>
		<path d="M-194.2,63.9l-5.1,12.4h-1.8l1.4-3.2l-3.8-9.2h1.8l2.7,6.9h0.2l2.7-6.9L-194.2,63.9z"/>
		<path d="M-186.6,60.2l3.3,10.9h0.2l3.3-11h1.9l-3.9,12.6h-2.7l-3.9-12.6H-186.6z"/>
		<path d="M-175.7,60c0.7,0,1.3,0.6,1.3,1.3c0,0.7-0.6,1.3-1.3,1.3c-0.7,0-1.3-0.6-1.3-1.3C-177,60.6-176.5,60-175.7,60
			C-175.8,60-175.7,60-175.7,60z M-174.8,72.8h-1.7v-8.8h1.7V72.8z"/>
		<path d="M-168.6,63.7c2.3-0.1,4.2,1.6,4.3,3.9c0,0.2,0,0.3,0,0.5v0.8h-6.9c0.1,1.5,1.4,2.7,3,2.6c1-0.1,1.9-0.7,2.4-1.6l1.4,0.8
			c-0.7,1.5-2.3,2.4-4,2.3c-2.5,0-4.5-1.9-4.6-4.4c0-0.1,0-0.2,0-0.3c-0.1-2.4,1.8-4.5,4.2-4.6C-168.8,63.7-168.7,63.7-168.6,63.7z
			 M-166.1,67.5c0-1.3-1-2.4-2.3-2.4c-0.1,0-0.1,0-0.2,0c-1.4-0.1-2.6,1-2.7,2.3c0,0,0,0,0,0H-166.1z"/>
		<path d="M-161.1,63.9v-3h1.7v3h2.7v1.4h-2.7v5.4c0,0.4,0.2,0.5,0.5,0.5h1.7v1.4h-2.4c-0.8,0-1.5-0.6-1.5-1.3c0,0,0-0.1,0-0.1v-5.9
			h-2.6v-1.4H-161.1z"/>
		<path d="M-153.2,63.9v1.5h0.3c0.5-1.1,1.7-1.8,3-1.7c1.9-0.1,3.4,1.4,3.5,3.3c0,0.1,0,0.3,0,0.4v5.3h-1.7v-5.2
			c0.1-1.2-0.7-2.2-1.9-2.3c-0.2,0-0.3,0-0.5,0c-1.6,0-2.7,1-2.7,3v4.5h-1.7v-8.8H-153.2z"/>
		<path d="M-140.3,63.7c2.4,0,3.9,1.4,3.9,3.5v5.6h-1.7v-1.4h-0.2c-0.6,1.1-1.9,1.7-3.1,1.6c-2,0-3.3-1.1-3.3-2.7s1.2-2.4,2.9-2.6
			l3.7-0.4V67c0-1.1-0.9-2-2-2c-0.1,0-0.2,0-0.3,0c-1.3,0-2.4,0.8-2.8,2l-1.4-0.8C-143.7,64.6-142.1,63.7-140.3,63.7z M-141.2,71.6
			c1.5,0.2,2.8-0.9,3-2.4c0-0.1,0-0.2,0-0.3v-0.1l-3.3,0.3c-1,0.1-1.6,0.5-1.6,1.3S-142.3,71.6-141.2,71.6z"/>
		<path d="M-132.5,63.9v1.3h0.2c0.7-1.3,2.4-1.8,3.7-1.1c0.5,0.3,0.9,0.7,1.2,1.2h0.2c0.5-1,1.5-1.7,2.6-1.6c1.6-0.1,2.9,1.2,3,2.8
			c0,0.1,0,0.2,0,0.2v6h-1.7v-5.8c0-0.9-0.7-1.6-1.6-1.7c-0.1,0-0.2,0-0.2,0c-1.1-0.1-2,0.8-2,1.8c0,0.1,0,0.2,0,0.3v5.4h-1.7v-5.8
			c0-0.9-0.7-1.6-1.6-1.7c-0.1,0-0.2,0-0.2,0c-1.1-0.1-2,0.8-2,1.8c0,0.1,0,0.2,0,0.3v5.4h-1.7v-8.8H-132.5z"/>
		<path d="M-115.3,63.7c2.3-0.1,4.2,1.6,4.3,3.9c0,0.2,0,0.3,0,0.5v0.8h-6.9c0.1,1.5,1.4,2.7,3,2.6c1-0.1,1.9-0.7,2.4-1.6l1.4,0.8
			c-0.7,1.5-2.3,2.4-4,2.3c-2.5,0-4.5-1.9-4.6-4.4c0-0.1,0-0.2,0-0.4c-0.1-2.4,1.8-4.5,4.2-4.6C-115.4,63.7-115.3,63.7-115.3,63.7z
			 M-112.7,67.5c0-1.3-1.1-2.4-2.4-2.4c-0.1,0-0.1,0-0.2,0c-1.4-0.1-2.6,1-2.7,2.3c0,0,0,0,0,0H-112.7z"/>
		<path d="M-106.2,63.7c1.7,0,3.3,0.7,4.4,2.1l-1.2,1c-0.7-1-1.9-1.6-3.2-1.7c-1.1,0-1.7,0.4-1.7,1.2s0.7,1,1.7,1.2l1.1,0.2
			c1.9,0.3,3.3,0.9,3.3,2.6s-1.6,2.7-3.6,2.7c-2,0.1-3.8-1-4.8-2.7l1.4-0.8c0.6,1.3,1.9,2.1,3.4,2.1c1.2,0,2-0.5,2-1.3
			s-0.7-1.1-1.8-1.3l-1.1-0.2c-2-0.3-3.2-1.1-3.2-2.6S-108.2,63.7-106.2,63.7z"/>
		<path d="M-96,63.7c2.3-0.1,4.2,1.6,4.3,3.9c0,0.2,0,0.3,0,0.5v0.8h-6.9c0.1,1.5,1.4,2.7,3,2.6c1-0.1,1.9-0.7,2.4-1.6l1.4,0.8
			c-0.7,1.5-2.3,2.4-4,2.3c-2.5,0-4.5-1.9-4.6-4.4c0-0.1,0-0.2,0-0.4c-0.1-2.4,1.8-4.5,4.2-4.6C-96.2,63.7-96.1,63.7-96,63.7z
			 M-93.5,67.5c0-1.3-1-2.4-2.3-2.4c-0.1,0-0.1,0-0.2,0c-1.4-0.1-2.6,1-2.7,2.4H-93.5z"/>
		<path d="M-282.2,85.5v-3h1.7v3h2.7V87h-2.7v5.4c0,0.4,0.2,0.5,0.5,0.5h1.7v1.4h-2.4c-0.8,0-1.5-0.6-1.5-1.3c0,0,0-0.1,0-0.1V87
			h-2.6v-1.5H-282.2z"/>
		<path d="M-267.5,85.5l-5.1,12.5h-1.8l1.4-3.2l-3.8-9.2h1.8l2.7,6.9h0.2l2.7-6.9H-267.5z"/>
		<path d="M-266.1,85.5h1.7V87h0.2c0.6-1.1,1.8-1.8,3.1-1.7c2.3,0,4.2,1.9,4.2,4.7s-1.9,4.7-4.2,4.7c-1.3,0.1-2.5-0.6-3.1-1.7h-0.2
			v5h-1.7V85.5z M-258.6,90c0.2-1.6-0.9-3-2.5-3.2c-0.1,0-0.2,0-0.3,0c-1.7,0.1-3,1.7-2.9,3.4c0.1,1.6,1.4,2.8,2.9,2.9
			c1.6,0,2.9-1.2,2.9-2.8C-258.6,90.2-258.6,90.1-258.6,90z"/>
		<path d="M-251.1,85.3c2.6-0.1,4.7,2,4.8,4.5c0.1,2.6-2,4.7-4.5,4.8c-2.6,0.1-4.7-2-4.8-4.5c0,0,0-0.1,0-0.1
			c-0.1-2.5,1.7-4.6,4.2-4.7C-251.3,85.3-251.2,85.3-251.1,85.3z M-251.1,93.1c1.7,0.2,3.3-1.1,3.5-2.8c0.2-1.7-1.1-3.3-2.8-3.5
			c-1.7-0.2-3.3,1.1-3.5,2.8c0,0.1,0,0.2,0,0.4c-0.1,1.6,1,3,2.6,3.1C-251.2,93.1-251.1,93.1-251.1,93.1z"/>
		<path d="M-236,85.5V94c0.1,2.3-1.7,4.2-3.9,4.2c-0.2,0-0.3,0-0.5,0c-1.9,0.1-3.6-0.9-4.6-2.5l1.5-0.9c0.6,1.2,1.7,1.9,3,1.9
			c1.4,0.1,2.7-0.9,2.8-2.3c0-0.2,0-0.3,0-0.5v-1.2h-0.2c-0.6,1.1-1.8,1.8-3.1,1.7c-2.5-0.2-4.4-2.4-4.2-4.9c0.2-2.2,2-4,4.2-4.2
			c1.3-0.1,2.5,0.6,3.1,1.7h0.2v-1.5H-236z M-237.7,89.8c0.1-1.5-1.1-2.9-2.6-3c-0.1,0-0.2,0-0.3,0c-1.7-0.1-3,1.2-3.1,2.9
			c-0.1,1.7,1.2,3,2.9,3.1C-239.2,92.9-237.8,91.6-237.7,89.8C-237.7,89.9-237.7,89.9-237.7,89.8z"/>
		<path d="M-232,86.8h0.2c0.3-0.9,1.1-1.2,2.2-1.2h1V87h-1.4c-1-0.1-2,0.7-2.1,1.7c0,0.1,0,0.3,0,0.4v5.3h-1.7v-8.8h1.7L-232,86.8z"
			/>
		<path d="M-223.2,85.3c2.4,0,3.9,1.4,3.9,3.5v5.6h-1.7V93h-0.2c-0.6,1.1-1.9,1.8-3.1,1.6c-2,0-3.3-1-3.3-2.7s1.2-2.4,2.9-2.6
			l3.7-0.4v-0.3c0-1.1-0.9-2-2-2c-0.1,0-0.2,0-0.3,0c-1.3,0-2.4,0.8-2.8,2l-1.4-0.8C-226.6,86.3-225,85.3-223.2,85.3z M-224,93.2
			c1.5,0.2,2.8-0.9,3-2.4c0-0.1,0-0.2,0-0.3v-0.1l-3.3,0.3c-1,0.1-1.6,0.5-1.6,1.3S-225.2,93.2-224,93.2z"/>
		<path d="M-217,85.5h1.7V87h0.2c0.6-1.1,1.8-1.8,3.1-1.7c2.3,0,4.2,1.9,4.2,4.7s-1.8,4.7-4.1,4.7c-1.3,0.1-2.5-0.6-3.1-1.7h-0.2v5
			h-1.7V85.5z M-209.6,90c0.2-1.6-0.9-3-2.5-3.2c-0.1,0-0.2,0-0.3,0c-1.7,0.1-3,1.7-2.9,3.4c0.1,1.6,1.4,2.8,2.9,2.9
			c1.6,0,2.9-1.2,2.9-2.8C-209.5,90.2-209.6,90.1-209.6,90z"/>
		<path d="M-204.3,81.8v5.3h0.2c0.5-1.1,1.7-1.8,3-1.7c1.9-0.1,3.4,1.4,3.5,3.3c0,0.1,0,0.3,0,0.4v5.3h-1.7v-5.2
			c0.1-1.2-0.7-2.2-1.9-2.3c-0.2,0-0.3,0-0.5,0c-1.6,0-2.7,1-2.7,3v4.5h-1.7V81.8H-204.3z"/>
		<path d="M-194.5,81.6c0.7,0,1.3,0.6,1.3,1.3c0,0.7-0.6,1.3-1.3,1.3c-0.7,0-1.3-0.6-1.3-1.3C-195.8,82.2-195.2,81.6-194.5,81.6
			C-194.5,81.6-194.5,81.6-194.5,81.6z M-193.6,94.4h-1.7v-8.8h1.7V94.4z"/>
		<path d="M-187.2,85.3c2.1-0.1,3.9,1.3,4.3,3.4l-1.7,0.4c-0.1-1.3-1.3-2.3-2.6-2.3c-1.6,0-2.9,1.3-2.9,3c0,0.1,0,0.1,0,0.2
			c-0.1,1.6,1.1,3,2.7,3.1c0.1,0,0.2,0,0.2,0c1.4,0.1,2.5-0.9,2.6-2.3l1.7,0.4c-0.4,2.1-2.2,3.5-4.3,3.4c-2.6-0.1-4.6-2.3-4.5-4.9
			C-191.5,87.3-189.6,85.4-187.2,85.3L-187.2,85.3z"/>
		<path d="M-174.1,86.8h0.2c0.3-0.9,1-1.2,2.2-1.2h1V87h-1.4c-1-0.1-2,0.6-2.1,1.7c0,0.1,0,0.3,0,0.4v5.3h-1.7v-8.8h1.7L-174.1,86.8
			z"/>
		<path d="M-165.6,85.3c2.3-0.1,4.2,1.6,4.3,3.9c0,0.2,0,0.3,0,0.5v0.8h-6.9c0,1.5,1.2,2.7,2.7,2.7c0,0,0.1,0,0.1,0
			c1.1,0.1,2.1-0.6,2.6-1.6l1.4,0.8c-0.7,1.5-2.3,2.4-4,2.3c-2.5,0-4.5-1.9-4.6-4.4c0-0.1,0-0.2,0-0.4c-0.1-2.4,1.7-4.5,4.1-4.6
			C-165.8,85.3-165.7,85.3-165.6,85.3z M-163.1,89.1c0-1.3-1-2.4-2.3-2.4c-0.1,0-0.1,0-0.2,0c-1.4-0.1-2.6,1-2.7,2.4H-163.1z"/>
		<path d="M-157.9,85.5v1.3h0.3c0.7-1.3,2.4-1.8,3.7-1.1c0.5,0.3,0.9,0.7,1.2,1.3h0.2c0.5-1,1.5-1.7,2.7-1.6c1.6-0.1,2.9,1.2,3,2.8
			c0,0.1,0,0.2,0,0.2v6h-1.7v-5.8c0-0.9-0.7-1.6-1.6-1.7c-0.1,0-0.2,0-0.2,0c-1.1-0.1-2,0.8-2,1.8c0,0.1,0,0.2,0,0.3v5.4h-1.7v-5.8
			c0-0.9-0.7-1.6-1.6-1.7c-0.1,0-0.1,0-0.2,0c-1.1-0.1-2,0.8-2,1.8c0,0.1,0,0.2,0,0.3v5.4h-1.7v-8.8H-157.9z"/>
		<path d="M-142.9,85.5v1.5h0.3c0.5-1.1,1.7-1.8,3-1.7c1.9-0.1,3.4,1.4,3.5,3.3c0,0.1,0,0.3,0,0.4v5.3h-1.7v-5.2
			c0.1-1.2-0.7-2.2-1.9-2.3c-0.2,0-0.3,0-0.5,0c-1.6,0-2.7,1-2.7,3v4.5h-1.7v-8.8H-142.9z"/>
		<path d="M-129.9,85.3c2.4,0,3.9,1.4,3.9,3.5v5.6h-1.7V93h-0.2c-0.6,1.1-1.9,1.8-3.1,1.6c-2,0-3.3-1-3.3-2.7s1.2-2.4,2.9-2.6
			l3.7-0.4v-0.3c0-1.1-0.9-2-2-2c-0.1,0-0.2,0-0.3,0c-1.3,0-2.4,0.8-2.8,2l-1.4-0.8C-133.4,86.3-131.8,85.3-129.9,85.3z
			 M-130.8,93.2c1.5,0.2,2.8-0.9,3-2.4c0-0.1,0-0.2,0-0.3v-0.1l-3.3,0.3c-1,0.1-1.6,0.5-1.6,1.3S-132,93.2-130.8,93.2z"/>
		<path d="M-122.1,85.5v1.5h0.3c0.5-1.1,1.7-1.8,3-1.7c1.9-0.1,3.4,1.4,3.5,3.3c0,0.1,0,0.3,0,0.4v5.3h-1.7v-5.2
			c0.1-1.2-0.7-2.2-1.9-2.3c-0.2,0-0.3,0-0.5,0c-1.6,0-2.7,1-2.7,3v4.5h-1.8v-8.8H-122.1z"/>
		<path d="M-111.8,85.5v-3h1.7v3h2.7V87h-2.7v5.4c0,0.4,0.2,0.5,0.5,0.5h1.7v1.4h-2.4c-0.8,0-1.5-0.6-1.5-1.3c0,0,0-0.1,0-0.1V87
			h-2.6v-1.5H-111.8z"/>
		<path d="M-102.5,85.3c1.7,0,3.3,0.7,4.4,2.1l-1.2,1c-0.7-1-1.9-1.6-3.2-1.7c-1.1,0-1.8,0.4-1.8,1.2s0.7,1,1.7,1.2l1.1,0.2
			c1.9,0.3,3.3,0.9,3.3,2.6s-1.6,2.8-3.6,2.8c-2,0.1-3.8-0.9-4.8-2.7l1.4-0.8c0.6,1.3,1.9,2.1,3.4,2.1c1.2,0,2-0.5,2-1.3
			s-0.7-1.1-1.8-1.3l-1.1-0.2c-2-0.3-3.2-1.1-3.2-2.6S-104.5,85.3-102.5,85.3z"/>
		<path d="M-95.1,91.8c0.8,0,1.4,0.6,1.4,1.4s-0.6,1.4-1.4,1.4s-1.4-0.6-1.4-1.4c0,0,0,0,0,0C-96.5,92.5-95.9,91.9-95.1,91.8
			C-95.1,91.8-95.1,91.8-95.1,91.8z"/>
	</g>
</g>
<g>
	<rect class="st0" width="230" height="115"/>
	<g>
		<path d="M56.5,19.8h-3.9v-1.5h9.6v1.5h-3.9v10.6h-1.7V19.8z"/>
		<path d="M61.2,28.1c0-1.6,1.2-2.4,2.9-2.5l3.6-0.4v-0.3c0-1.1-0.8-1.9-2.2-1.9c-1.4,0-2.2,0.8-2.7,1.9l-1.4-0.8
			c0.6-1.1,1.9-2.5,4.1-2.5c2.3,0,3.7,1.3,3.7,3.4v5.4h-1.6v-1.3h-0.2c-0.5,0.8-1.2,1.6-3,1.6C62.5,30.7,61.2,29.7,61.2,28.1z
			 M64.4,18.3h2.1l1.7,2.3h-1.7l-0.9-1.3h-0.2l-0.9,1.3h-1.7L64.4,18.3z M67.6,26.7v-0.1l-3.2,0.3c-1,0.1-1.6,0.5-1.6,1.2
			c0,0.7,0.7,1.2,1.8,1.2C66.5,29.3,67.6,28.3,67.6,26.7z M64.2,32.9c0-0.7,0.5-1.3,1.3-1.3c0.7,0,1.3,0.5,1.3,1.3
			c0,0.7-0.5,1.2-1.3,1.2C64.7,34.1,64.2,33.6,64.2,32.9z"/>
		<path d="M71.5,21.9h1.6v1.4h0.2c0.5-0.8,1.3-1.6,3-1.6c2.2,0,4,1.8,4,4.5c0,2.7-1.8,4.5-4,4.5c-1.7,0-2.5-0.8-3-1.6h-0.2v4.9h-1.6
			V21.9z M78.7,26.2c0-1.9-1.2-3.1-2.8-3.1c-1.6,0-2.8,1.2-2.8,3.1c0,1.9,1.2,3,2.8,3C77.5,29.2,78.7,28.1,78.7,26.2z"/>
		<path d="M87.3,18.3h1.6v5.1h0.2c0.4-0.8,1.2-1.6,2.9-1.6c1.8,0,3.4,1.3,3.4,3.5v5.1h-1.6v-5c0-1.5-0.9-2.3-2.3-2.3
			c-1.6,0-2.6,1-2.6,2.9v4.3h-1.6V18.3z"/>
		<path d="M101.5,21.7c1.4,0,2.1,0.6,2.9,0.6c0.4,0,0.6-0.1,0.6-0.4v-0.9h1.3v1.3c0,0.7-0.4,1.2-1.1,1.3c0.5,0.7,0.8,1.7,0.8,2.7
			c0,2.7-1.9,4.5-4.4,4.5c-2.5,0-4.4-1.8-4.4-4.5S98.9,21.7,101.5,21.7z M101.5,29.2c1.7,0,2.8-1.3,2.8-3c0-1.8-1.1-3.1-2.8-3.1
			c-1.7,0-2.8,1.3-2.8,3.1C98.7,28,99.8,29.2,101.5,29.2z M100.2,32.9c0-0.7,0.5-1.3,1.3-1.3c0.7,0,1.3,0.5,1.3,1.3
			c0,0.7-0.5,1.2-1.3,1.2C100.8,34.1,100.2,33.6,100.2,32.9z"/>
		<path d="M107.7,21.9h1.6v1.4h0.2c0.5-0.8,1.3-1.6,3-1.6c2.2,0,4,1.8,4,4.5c0,2.7-1.8,4.5-4,4.5c-1.7,0-2.5-0.8-3-1.6h-0.2v4.9
			h-1.6V21.9z M114.9,26.2c0-1.9-1.2-3.1-2.8-3.1c-1.6,0-2.8,1.2-2.8,3.1c0,1.9,1.2,3,2.8,3C113.7,29.2,114.9,28.1,114.9,26.2z"/>
		<path d="M122.9,26.2c0-2.7,2-4.5,4.4-4.5c2.3,0,3.8,1.4,4.2,3.3l-1.6,0.4c-0.2-1.3-1.1-2.2-2.5-2.2c-1.6,0-2.8,1.3-2.8,3.1
			c0,1.8,1.2,3,2.8,3c1.5,0,2.3-0.9,2.6-2.2l1.6,0.4c-0.4,1.9-1.9,3.3-4.2,3.3C124.9,30.7,122.9,28.8,122.9,26.2z"/>
		<path d="M132.6,28.1c0-1.6,1.2-2.4,2.9-2.5l3.6-0.4v-0.3c0-1.1-0.8-1.9-2.2-1.9c-1.4,0-2.2,0.8-2.7,1.9l-1.4-0.8
			c0.6-1.1,1.9-2.5,4.1-2.5c2.3,0,3.7,1.3,3.7,3.4v5.4h-1.6v-1.3h-0.2c-0.5,0.8-1.2,1.6-3,1.6C133.9,30.7,132.6,29.7,132.6,28.1z
			 M139.1,26.7v-0.1l-3.2,0.3c-1,0.1-1.6,0.5-1.6,1.2c0,0.7,0.7,1.2,1.8,1.2C137.9,29.3,139.1,28.3,139.1,26.7z M136.8,18.3h1.9
			l-1.4,2.3h-1.5L136.8,18.3z"/>
		<path d="M142.4,26.2c0-2.7,2-4.5,4.4-4.5c2.3,0,3.8,1.4,4.2,3.3l-1.6,0.4c-0.2-1.3-1.1-2.2-2.5-2.2c-1.6,0-2.8,1.3-2.8,3.1
			c0,1.8,1.2,3,2.8,3c1.5,0,2.3-0.9,2.6-2.2l1.6,0.4c-0.4,1.9-1.9,3.3-4.2,3.3C144.4,30.7,142.4,28.8,142.4,26.2z"/>
		<path d="M159.7,29h-0.2v1.4h-1.6V18.3h1.6v5h0.2c0.5-0.8,1.3-1.6,3-1.6c2.2,0,4,1.8,4,4.5c0,2.7-1.8,4.5-4,4.5
			C161,30.7,160.2,29.9,159.7,29z M165.1,26.2c0-1.9-1.2-3.1-2.8-3.1c-1.6,0-2.8,1.2-2.8,3.1c0,1.9,1.2,3,2.8,3
			C163.9,29.2,165.1,28.1,165.1,26.2z"/>
		<path d="M168,26.2c0-2.7,1.9-4.5,4.4-4.5c2.6,0,4.4,1.9,4.4,4.5s-1.9,4.5-4.4,4.5C169.9,30.7,168,28.8,168,26.2z M175.2,26.2
			c0-1.8-1.1-3.1-2.8-3.1c-1.7,0-2.8,1.3-2.8,3.1c0,1.8,1.1,3,2.8,3C174.1,29.2,175.2,28,175.2,26.2z M171.4,18.3h2.1l1.7,2.3h-1.7
			l-0.9-1.3h-0.2l-0.9,1.3h-1.7L171.4,18.3z M171.1,32.9c0-0.7,0.5-1.3,1.3-1.3c0.7,0,1.3,0.5,1.3,1.3c0,0.7-0.5,1.2-1.3,1.2
			C171.7,34.1,171.1,33.6,171.1,32.9z"/>
		<path d="M35.5,42.8h1.6v1.4h0.2c0.5-0.8,1.3-1.6,3-1.6c2.2,0,4,1.8,4,4.5c0,2.7-1.8,4.5-4,4.5c-1.7,0-2.5-0.8-3-1.6h-0.2v4.9h-1.6
			V42.8z M42.7,47c0-1.9-1.2-3.1-2.8-3.1c-1.6,0-2.8,1.2-2.8,3.1c0,1.9,1.2,3,2.8,3C41.5,50.1,42.7,48.9,42.7,47z"/>
		<path d="M46.1,39.1h1.6v5.1H48c0.4-0.8,1.2-1.6,2.9-1.6c1.8,0,3.4,1.3,3.4,3.5v5.1h-1.6v-5c0-1.5-0.9-2.3-2.3-2.3
			c-1.6,0-2.6,1-2.6,2.9v4.3h-1.6V39.1z"/>
		<path d="M55.9,47c0-2.7,1.9-4.5,4.4-4.5c2.6,0,4.4,1.9,4.4,4.5s-1.9,4.5-4.4,4.5C57.8,51.5,55.9,49.7,55.9,47z M63.1,47
			c0-1.8-1.1-3.1-2.8-3.1c-1.7,0-2.8,1.3-2.8,3.1c0,1.8,1.1,3,2.8,3C62,50.1,63.1,48.8,63.1,47z M59.3,39.1h2.1l1.7,2.3h-1.7
			l-0.9-1.3h-0.2l-0.9,1.3h-1.7L59.3,39.1z"/>
		<path d="M66.5,42.8h1.6v1.5h0.2c0.4-0.8,1.2-1.6,2.9-1.6c1.8,0,3.4,1.3,3.4,3.5v5.1H73v-5c0-1.5-0.9-2.3-2.3-2.3
			c-1.6,0-2.6,1-2.6,2.9v4.3h-1.6V42.8z"/>
		<path d="M76.4,52.6l1.4-0.8c0.5,1,1.4,1.8,2.9,1.8c1.6,0,2.7-0.9,2.7-2.7v-1.2h-0.2c-0.5,0.8-1.3,1.6-3,1.6c-2.2,0-4-1.8-4-4.4
			s1.8-4.4,4-4.4c1.7,0,2.5,0.8,3,1.6h0.2v-1.4h1.6v8.2c0,2.4-1.6,4.1-4.3,4.1C78.6,55,77.3,54,76.4,52.6z M83.5,46.9
			c0-1.8-1.2-2.9-2.8-2.9c-1.6,0-2.8,1.1-2.8,2.9s1.2,2.9,2.8,2.9C82.3,49.9,83.5,48.7,83.5,46.9z"/>
		<path d="M92.1,47c0-2.7,2-4.5,4.4-4.5c2.3,0,3.8,1.4,4.2,3.3l-1.6,0.4C98.9,44.9,98,44,96.5,44c-1.6,0-2.8,1.3-2.8,3.1
			c0,1.8,1.2,3,2.8,3c1.5,0,2.3-0.9,2.6-2.2l1.6,0.4c-0.4,1.9-1.9,3.3-4.2,3.3C94,51.5,92.1,49.7,92.1,47z"/>
		<path d="M102.4,39.1h1.6v5.1h0.2c0.4-0.8,1.2-1.6,2.9-1.6c1.8,0,3.4,1.3,3.4,3.5v5.1h-1.6v-5c0-1.5-0.9-2.3-2.3-2.3
			c-1.6,0-2.6,1-2.6,2.9v4.3h-1.6V39.1z"/>
		<path d="M122.1,41.4v1.3c0,0.7-0.4,1.3-1.2,1.3h-0.2v7.3h-1.6v-1.5h-0.2c-0.4,0.8-1.2,1.6-2.9,1.6c-1.8,0-3.4-1.3-3.4-3.5v-5.1
			h1.6v5c0,1.5,0.9,2.3,2.3,2.3c1.6,0,2.6-1,2.6-2.9v-4.3h1.5c0.2,0,0.3-0.1,0.3-0.4v-0.9H122.1z M114.6,41.4l-1-0.8l0.8-1.1
			c0.3-0.5,0.8-0.7,1.4-0.7c0.5,0,0.9,0.2,1.3,0.8c0.2,0.3,0.3,0.5,0.6,0.5c0.3,0,0.4-0.1,0.6-0.4l0.6-0.7l1,0.8l-0.8,1.1
			c-0.3,0.5-0.7,0.7-1.4,0.7c-0.5,0-0.8-0.2-1.2-0.8c-0.2-0.3-0.3-0.5-0.6-0.5c-0.3,0-0.4,0.1-0.6,0.4L114.6,41.4z"/>
		<path d="M128.1,42.8h1.6V44h0.2c0.4-0.8,1.1-1.4,2.4-1.4c1.2,0,2,0.6,2.4,1.5h0.2c0.5-0.9,1.3-1.5,2.6-1.5c1.7,0,2.9,1.2,2.9,2.9
			v5.8h-1.6v-5.7c0-1-0.7-1.6-1.7-1.6c-1.1,0-1.9,0.7-1.9,2.1v5.2h-1.6v-5.7c0-1-0.7-1.6-1.7-1.6c-1.1,0-1.9,0.7-1.9,2.1v5.2h-1.6
			V42.8z"/>
		<path d="M142.2,40.2c0-0.7,0.5-1.3,1.3-1.3c0.7,0,1.3,0.5,1.3,1.3c0,0.7-0.5,1.2-1.3,1.2C142.7,41.4,142.2,40.9,142.2,40.2z
			 M142.6,42.8h1.6v8.5h-1.6V42.8z"/>
		<path d="M146.1,47c0-2.6,1.8-4.5,4.3-4.5c2.4,0,4.1,1.7,4.1,4.2v0.8h-6.7c0.1,1.5,1.1,2.6,2.7,2.6c1.4,0,2.1-0.7,2.5-1.6l1.4,0.7
			c-0.6,1-1.6,2.2-3.8,2.2C147.9,51.5,146.1,49.6,146.1,47z M150,38.1c-0.2-0.3-0.3-0.5-0.6-0.5c-0.3,0-0.4,0.1-0.6,0.4l-0.5,0.7
			l-1-0.8l0.8-1.1c0.3-0.5,0.8-0.7,1.4-0.7c0.5,0,0.9,0.2,1.3,0.8c0.2,0.3,0.3,0.5,0.6,0.5c0.3,0,0.4-0.1,0.6-0.4l0.6-0.7l1,0.8
			l-0.8,1.1c-0.3,0.5-0.7,0.7-1.4,0.7C150.8,38.8,150.4,38.6,150,38.1z M149.3,39.3h2.1l1.7,2.3h-1.7l-0.9-1.3h-0.2l-0.9,1.3h-1.7
			L149.3,39.3z M152.8,46.2c-0.1-1.4-1-2.3-2.4-2.3c-1.5,0-2.4,0.9-2.6,2.3H152.8z"/>
		<path d="M156.2,42.8h1.6v1.5h0.2c0.4-0.8,1.2-1.6,2.9-1.6c1.8,0,3.4,1.3,3.4,3.5v5.1h-1.6v-5c0-1.5-0.9-2.3-2.3-2.3
			c-1.6,0-2.6,1-2.6,2.9v4.3h-1.6V42.8z"/>
		<path d="M171.6,42.8h1.6v1.4h0.2c0.5-0.8,1.3-1.6,3-1.6c2.2,0,4,1.8,4,4.5c0,2.7-1.8,4.5-4,4.5c-1.7,0-2.5-0.8-3-1.6h-0.2v4.9
			h-1.6V42.8z M178.8,47c0-1.9-1.2-3.1-2.8-3.1c-1.6,0-2.8,1.2-2.8,3.1c0,1.9,1.2,3,2.8,3C177.7,50.1,178.8,48.9,178.8,47z"/>
		<path d="M182.3,39.1h1.6v5.1h0.2c0.4-0.8,1.2-1.6,2.9-1.6c1.8,0,3.4,1.3,3.4,3.5v5.1h-1.6v-5c0-1.5-0.9-2.3-2.3-2.3
			c-1.6,0-2.6,1-2.6,2.9v4.3h-1.6V39.1z"/>
		<path d="M193.3,39.1h1.9l-1.4,2.3h-1.5L193.3,39.1z M192.6,42.8h1.6v8.5h-1.6V42.8z"/>
		<path d="M17.7,67.9c0-2.7,1.8-4.5,4-4.5c1.7,0,2.5,0.8,3,1.6h0.2v-5h1.6v12.2h-1.6v-1.4h-0.2c-0.5,0.8-1.3,1.6-3,1.6
			C19.5,72.4,17.7,70.5,17.7,67.9z M24.9,67.9c0-1.9-1.2-3-2.8-3c-1.6,0-2.8,1.1-2.8,3c0,1.9,1.2,3.1,2.8,3.1
			C23.7,70.9,24.9,69.8,24.9,67.9z"/>
		<path d="M38.3,62.3v1.3c0,0.7-0.4,1.3-1.2,1.3h-0.2v7.3h-1.6v-1.5H35c-0.4,0.8-1.2,1.6-2.9,1.6c-1.8,0-3.4-1.3-3.4-3.5v-5.1h1.6v5
			c0,1.5,0.9,2.3,2.3,2.3c1.6,0,2.6-1,2.6-2.9v-4.3h1.5c0.2,0,0.3-0.1,0.3-0.4v-0.9H38.3z M34.1,74.6c0,0.7-0.5,1.2-1.3,1.2
			c-0.7,0-1.3-0.5-1.3-1.2c0-0.7,0.5-1.3,1.3-1.3C33.5,73.3,34.1,73.9,34.1,74.6z"/>
		<path d="M38.6,69.8c0-1.6,1.2-2.4,2.9-2.5l3.6-0.4v-0.3c0-1.1-0.8-1.9-2.2-1.9c-1.4,0-2.2,0.8-2.7,1.9l-1.4-0.8
			c0.6-1.1,1.9-2.5,4.1-2.5c2.3,0,3.7,1.3,3.7,3.4v5.4h-1.6v-1.3h-0.2c-0.5,0.8-1.2,1.6-3,1.6C39.9,72.4,38.6,71.4,38.6,69.8z
			 M45,68.4v-0.1l-3.2,0.3c-1,0.1-1.6,0.5-1.6,1.2c0,0.7,0.7,1.2,1.8,1.2C43.9,71,45,70,45,68.4z"/>
		<path d="M55.5,70.7V65H53v-1.4h2.5v-2.9h1.6v2.9h2.6V65h-2.6v5.2c0,0.3,0.2,0.5,0.5,0.5h1.7v1.4H57C56.1,72.2,55.5,71.6,55.5,70.7
			z"/>
		<path d="M61.5,63.6h1.6v1.2h0.2c0.3-0.9,1-1.2,2.1-1.2h1V65h-1.3c-1.2,0-2,0.6-2,2v5.1h-1.6V63.6z"/>
		<path d="M67,67.8c0-2.6,1.8-4.5,4.3-4.5c2.4,0,4.1,1.7,4.1,4.2v0.8h-6.7c0.1,1.5,1.1,2.6,2.7,2.6c1.4,0,2.1-0.7,2.5-1.6l1.4,0.7
			c-0.6,1-1.6,2.2-3.8,2.2C68.8,72.4,67,70.5,67,67.8z M70.3,60h2.1l1.7,2.3h-1.7l-0.9-1.3h-0.2l-0.9,1.3h-1.7L70.3,60z M73.7,67.1
			c-0.1-1.4-1-2.3-2.4-2.3c-1.5,0-2.4,0.9-2.6,2.3H73.7z"/>
		<path d="M77.1,63.6h1.6v1.5H79c0.4-0.8,1.2-1.6,2.9-1.6c1.8,0,3.4,1.3,3.4,3.5v5.1h-1.6v-5c0-1.5-0.9-2.3-2.3-2.3
			c-1.6,0-2.6,1-2.6,2.9v4.3h-1.6V63.6z"/>
		<path d="M92.6,63.6h1.6v1.5h0.2c0.4-0.8,1.2-1.6,2.9-1.6c1.8,0,3.4,1.3,3.4,3.5v5.1h-1.6v-5c0-1.5-0.9-2.3-2.3-2.3
			c-1.6,0-2.6,1-2.6,2.9v4.3h-1.6V63.6z"/>
		<path d="M102.9,60h1.6v5.1h0.2c0.4-0.8,1.2-1.6,2.9-1.6c1.8,0,3.4,1.3,3.4,3.5v5.1h-1.6v-5c0-1.5-0.9-2.3-2.3-2.3
			c-1.6,0-2.6,1-2.6,2.9v4.3h-1.6V60z"/>
		<path d="M122.6,62.3v1.3c0,0.7-0.4,1.3-1.2,1.3h-0.2v7.3h-1.6v-1.5h-0.2c-0.4,0.8-1.2,1.6-2.9,1.6c-1.8,0-3.4-1.3-3.4-3.5v-5.1
			h1.6v5c0,1.5,0.9,2.3,2.3,2.3c1.6,0,2.6-1,2.6-2.9v-4.3h1.5c0.2,0,0.3-0.1,0.3-0.4v-0.9H122.6z M115.1,62.2l-1-0.8l0.8-1.1
			c0.3-0.5,0.8-0.7,1.4-0.7c0.5,0,0.9,0.2,1.3,0.8c0.2,0.3,0.3,0.5,0.6,0.5c0.3,0,0.4-0.1,0.6-0.4l0.6-0.7l1,0.8l-0.8,1.1
			c-0.3,0.5-0.7,0.7-1.4,0.7c-0.5,0-0.8-0.2-1.2-0.8c-0.2-0.3-0.3-0.5-0.6-0.5c-0.3,0-0.4,0.1-0.6,0.4L115.1,62.2z"/>
		<path d="M123.5,63.6h1.6v1.5h0.2c0.4-0.8,1.2-1.6,2.9-1.6c1.8,0,3.4,1.3,3.4,3.5v5.1H130v-5c0-1.5-0.9-2.3-2.3-2.3
			c-1.6,0-2.6,1-2.6,2.9v4.3h-1.6V63.6z"/>
		<path d="M133.4,73.5l1.4-0.8c0.5,1,1.4,1.8,2.9,1.8c1.6,0,2.7-0.9,2.7-2.7v-1.2h-0.2c-0.5,0.8-1.3,1.6-3,1.6c-2.2,0-4-1.8-4-4.4
			c0-2.6,1.8-4.4,4-4.4c1.7,0,2.5,0.8,3,1.6h0.2v-1.4h1.6v8.2c0,2.4-1.6,4.1-4.3,4.1C135.6,75.9,134.3,74.8,133.4,73.5z M140.5,67.8
			c0-1.8-1.2-2.9-2.8-2.9c-1.6,0-2.8,1.1-2.8,2.9c0,1.9,1.2,2.9,2.8,2.9C139.3,70.7,140.5,69.6,140.5,67.8z"/>
		<path d="M151.1,70.7V65h-2.5v-1.4h2.5v-2.9h1.6v2.9h2.6V65h-2.6v5.2c0,0.3,0.2,0.5,0.5,0.5h1.7v1.4h-2.3
			C151.7,72.2,151.1,71.6,151.1,70.7z"/>
		<path d="M156.5,69.8c0-1.6,1.2-2.4,2.9-2.5l3.6-0.4v-0.3c0-1.1-0.8-1.9-2.2-1.9c-1.4,0-2.2,0.8-2.7,1.9l-1.4-0.8
			c0.6-1.1,1.9-2.5,4.1-2.5c2.3,0,3.7,1.3,3.7,3.4v5.4H163v-1.3h-0.2c-0.5,0.8-1.2,1.6-3,1.6C157.8,72.4,156.5,71.4,156.5,69.8z
			 M162.9,68.4v-0.1l-3.2,0.3c-1,0.1-1.6,0.5-1.6,1.2c0,0.7,0.7,1.2,1.8,1.2C161.8,71,162.9,70,162.9,68.4z M158.9,60h1.9l1.1,2.3
			h-1.5L158.9,60z"/>
		<path d="M166.8,63.6h1.6v1.5h0.2c0.4-0.8,1.2-1.6,2.9-1.6c1.8,0,3.4,1.3,3.4,3.5v5.1h-1.6v-5c0-1.5-0.9-2.3-2.3-2.3
			c-1.6,0-2.6,1-2.6,2.9v4.3h-1.6V63.6z"/>
		<path d="M183.7,70.7V65h-2.5v-1.4h2.5v-2.9h1.6v2.9h2.6V65h-2.6v5.2c0,0.3,0.2,0.5,0.5,0.5h1.7v1.4h-2.3
			C184.3,72.2,183.7,71.6,183.7,70.7z"/>
		<path d="M190.5,60h1.9l-1.4,2.3h-1.5L190.5,60z M189.7,63.6h1.6v8.5h-1.6V63.6z"/>
		<path d="M193.2,67.9c0-2.7,2-4.5,4.4-4.5c2.3,0,3.8,1.4,4.2,3.3l-1.6,0.4c-0.2-1.3-1.1-2.2-2.5-2.2c-1.6,0-2.8,1.3-2.8,3.1
			c0,1.8,1.2,3,2.8,3c1.5,0,2.3-0.9,2.6-2.2l1.6,0.4c-0.4,1.9-1.9,3.3-4.2,3.3C195.1,72.4,193.2,70.5,193.2,67.9z"/>
		<path d="M203.5,60h1.6v5.1h0.2c0.4-0.8,1.2-1.6,2.9-1.6c1.8,0,3.4,1.3,3.4,3.5v5.1H210v-5c0-1.5-0.9-2.3-2.3-2.3
			c-1.6,0-2.6,1-2.6,2.9v4.3h-1.6V60z"/>
		<path d="M14.6,84.5h1.6V86h0.2c0.4-0.8,1.2-1.6,2.9-1.6c1.8,0,3.4,1.3,3.4,3.5V93h-1.6v-5c0-1.5-0.9-2.3-2.3-2.3
			c-1.6,0-2.6,1-2.6,2.9V93h-1.6V84.5z"/>
		<path d="M24.6,94.3l1.4-0.8c0.5,1,1.4,1.8,2.9,1.8c1.6,0,2.7-0.9,2.7-2.7v-1.2h-0.2c-0.5,0.8-1.3,1.6-3,1.6c-2.2,0-4-1.8-4-4.4
			c0-2.6,1.8-4.4,4-4.4c1.7,0,2.5,0.8,3,1.6h0.2v-1.4h1.6v8.2c0,2.4-1.6,4.1-4.3,4.1C26.7,96.7,25.4,95.7,24.6,94.3z M31.6,88.6
			c0-1.8-1.2-2.9-2.8-2.9c-1.6,0-2.8,1.1-2.8,2.9c0,1.9,1.2,2.9,2.8,2.9C30.4,91.6,31.6,90.5,31.6,88.6z"/>
		<path d="M35.6,80.8h1.6V86h0.2c0.4-0.8,1.2-1.6,2.9-1.6c1.8,0,3.4,1.3,3.4,3.5V93H42v-5c0-1.5-0.9-2.3-2.3-2.3
			c-1.6,0-2.6,1-2.6,2.9V93h-1.6V80.8z"/>
		<path d="M45.4,88.7c0-2.6,1.8-4.5,4.3-4.5c2.4,0,4.1,1.7,4.1,4.2v0.8h-6.7c0.1,1.5,1.1,2.6,2.7,2.6c1.4,0,2.1-0.7,2.5-1.6l1.4,0.7
			c-0.6,1-1.6,2.2-3.8,2.2C47.2,93.3,45.4,91.3,45.4,88.7z M48.6,80.8h2.1l1.7,2.3h-1.7l-0.9-1.3h-0.2l-0.9,1.3h-1.7L48.6,80.8z
			 M52.1,87.9c-0.1-1.4-1-2.3-2.4-2.3c-1.5,0-2.4,0.9-2.6,2.3H52.1z M48.4,95.4c0-0.7,0.5-1.3,1.3-1.3c0.7,0,1.3,0.5,1.3,1.3
			c0,0.7-0.5,1.2-1.3,1.2C48.9,96.7,48.4,96.2,48.4,95.4z"/>
		<path d="M62.1,91.6v-5.7h-2.5v-1.4h2.5v-2.9h1.6v2.9h2.6v1.4h-2.6v5.2c0,0.3,0.2,0.5,0.5,0.5h1.7V93h-2.3
			C62.7,93,62.1,92.4,62.1,91.6z"/>
		<path d="M68.1,80.8h1.6V86h0.2c0.4-0.8,1.2-1.6,2.9-1.6c1.8,0,3.4,1.3,3.4,3.5V93h-1.6v-5c0-1.5-0.9-2.3-2.3-2.3
			c-1.6,0-2.6,1-2.6,2.9V93h-1.6V80.8z"/>
		<path d="M78.3,89.6v-5.1h1.6v5c0,1.5,0.9,2.3,2.3,2.3c1.6,0,2.6-1,2.6-2.9v-4.3h1.6V93h-1.6v-1.5h-0.2c-0.4,0.8-1.2,1.6-2.9,1.6
			C79.8,93.2,78.3,91.9,78.3,89.6z"/>
		<path d="M88.1,90.7c0-1.6,1.2-2.4,2.9-2.5l3.6-0.4v-0.3c0-1.1-0.8-1.9-2.2-1.9c-1.4,0-2.2,0.8-2.7,1.9l-1.4-0.8
			c0.6-1.1,1.9-2.5,4.1-2.5c2.3,0,3.7,1.3,3.7,3.4V93h-1.6v-1.3h-0.2c-0.5,0.8-1.2,1.6-3,1.6C89.4,93.3,88.1,92.2,88.1,90.7z
			 M91.3,80.8h2.1l1.7,2.3h-1.7l-0.9-1.3h-0.2l-0.9,1.3h-1.7L91.3,80.8z M94.5,89.2v-0.1l-3.2,0.3c-1,0.1-1.6,0.5-1.6,1.2
			c0,0.7,0.7,1.2,1.8,1.2C93.4,91.9,94.5,90.9,94.5,89.2z M91.1,95.4c0-0.7,0.5-1.3,1.3-1.3c0.7,0,1.3,0.5,1.3,1.3
			c0,0.7-0.5,1.2-1.3,1.2C91.6,96.7,91.1,96.2,91.1,95.4z"/>
		<path d="M99.7,91.6v-5.7h-2.5v-1.4h2.5v-2.9h1.6v2.9h2.6v1.4h-2.6v5.2c0,0.3,0.2,0.5,0.5,0.5h1.7V93h-2.3
			C100.3,93,99.7,92.4,99.7,91.6z"/>
		<path d="M110.3,88.8c0-2.7,2-4.5,4.4-4.5c2.3,0,3.8,1.4,4.2,3.3l-1.6,0.4c-0.2-1.3-1.1-2.2-2.5-2.2c-1.6,0-2.8,1.3-2.8,3.1
			c0,1.8,1.2,3,2.8,3c1.5,0,2.3-0.9,2.6-2.2l1.6,0.4c-0.4,1.9-1.9,3.3-4.2,3.3C112.3,93.3,110.3,91.4,110.3,88.8z"/>
		<path d="M120.6,80.8h1.6V86h0.2c0.4-0.8,1.2-1.6,2.9-1.6c1.8,0,3.4,1.3,3.4,3.5V93h-1.6v-5c0-1.5-0.9-2.3-2.3-2.3
			c-1.6,0-2.6,1-2.6,2.9V93h-1.6V80.8z"/>
		<path d="M140.3,83.2v1.3c0,0.7-0.4,1.3-1.2,1.3h-0.2V93h-1.6v-1.5h-0.2c-0.4,0.8-1.2,1.6-2.9,1.6c-1.8,0-3.4-1.3-3.4-3.5v-5.1h1.6
			v5c0,1.5,0.9,2.3,2.3,2.3c1.6,0,2.6-1,2.6-2.9v-4.3h1.5c0.2,0,0.3-0.1,0.3-0.4v-0.9H140.3z M132.8,83.1l-1-0.8l0.8-1.1
			c0.3-0.5,0.8-0.7,1.4-0.7c0.5,0,0.9,0.2,1.3,0.8c0.2,0.3,0.3,0.5,0.6,0.5c0.3,0,0.4-0.1,0.6-0.4l0.6-0.7l1,0.8l-0.8,1.1
			c-0.3,0.5-0.7,0.7-1.4,0.7c-0.5,0-0.8-0.2-1.2-0.8c-0.2-0.3-0.3-0.5-0.6-0.5c-0.3,0-0.4,0.1-0.6,0.4L132.8,83.1z"/>
		<path d="M145.4,80.8h1.8l3.2,10.6h0.2l3.2-10.6h1.8L151.8,93h-2.6L145.4,80.8z"/>
		<path d="M156.4,81.9c0-0.7,0.5-1.3,1.3-1.3c0.7,0,1.3,0.5,1.3,1.3c0,0.7-0.5,1.2-1.3,1.2C157,83.1,156.4,82.6,156.4,81.9z
			 M156.9,84.5h1.6V93h-1.6V84.5z"/>
		<path d="M160.3,88.7c0-2.6,1.8-4.5,4.3-4.5c2.4,0,4.1,1.7,4.1,4.2v0.8H162c0.1,1.5,1.1,2.6,2.7,2.6c1.4,0,2.1-0.7,2.5-1.6l1.4,0.7
			c-0.6,1-1.6,2.2-3.8,2.2C162.1,93.3,160.3,91.3,160.3,88.7z M163.5,80.8h2.1l1.7,2.3h-1.7l-0.9-1.3h-0.2l-0.9,1.3h-1.7L163.5,80.8
			z M167,87.9c-0.1-1.4-1-2.3-2.4-2.3c-1.5,0-2.4,0.9-2.6,2.3H167z M163.3,95.4c0-0.7,0.5-1.3,1.3-1.3c0.7,0,1.3,0.5,1.3,1.3
			c0,0.7-0.5,1.2-1.3,1.2C163.8,96.7,163.3,96.2,163.3,95.4z"/>
		<path d="M171.9,91.6v-5.7h-2.5v-1.4h2.5v-2.9h1.6v2.9h2.6v1.4h-2.6v5.2c0,0.3,0.2,0.5,0.5,0.5h1.7V93h-2.3
			C172.5,93,171.9,92.4,171.9,91.6z"/>
		<path d="M185.6,88.7l-3.2-4.2h1.9l2.4,3.2h0.2l2.4-3.2h1.9l-3.2,4.2l3.3,4.3h-2l-2.4-3.3h-0.2l-2.4,3.3h-2L185.6,88.7z"/>
		<path d="M202.4,83.2v1.3c0,0.7-0.4,1.3-1.2,1.3h-0.2V93h-1.6v-1.5h-0.2c-0.4,0.8-1.2,1.6-2.9,1.6c-1.8,0-3.4-1.3-3.4-3.5v-5.1h1.6
			v5c0,1.5,0.9,2.3,2.3,2.3c1.6,0,2.6-1,2.6-2.9v-4.3h1.5c0.2,0,0.3-0.1,0.3-0.4v-0.9H202.4z"/>
		<path d="M202.7,90.7c0-1.6,1.2-2.4,2.9-2.5l3.6-0.4v-0.3c0-1.1-0.8-1.9-2.2-1.9c-1.4,0-2.2,0.8-2.7,1.9l-1.4-0.8
			c0.6-1.1,1.9-2.5,4.1-2.5c2.3,0,3.7,1.3,3.7,3.4V93h-1.6v-1.3h-0.2c-0.5,0.8-1.2,1.6-3,1.6C203.9,93.3,202.7,92.2,202.7,90.7z
			 M209.1,89.2v-0.1l-3.2,0.3c-1,0.1-1.6,0.5-1.6,1.2c0,0.7,0.7,1.2,1.8,1.2C207.9,91.9,209.1,90.9,209.1,89.2z"/>
		<path d="M212.7,91.9c0-0.8,0.6-1.4,1.4-1.4c0.8,0,1.4,0.6,1.4,1.4s-0.6,1.4-1.4,1.4C213.3,93.3,212.7,92.7,212.7,91.9z"/>
	</g>
</g>
</svg>
